<?xml version="1.0" encoding="UTF-8"?>
<!DOCTYPE svg PUBLIC "-//W3C//DTD SVG 1.1//EN" "http://www.w3.org/Graphics/SVG/1.1/DTD/svg11.dtd">
<svg xmlns="http://www.w3.org/2000/svg" version="1.1" width="500px" height="500px" style="shape-rendering:geometricPrecision; text-rendering:geometricPrecision; image-rendering:optimizeQuality; fill-rule:evenodd; clip-rule:evenodd" xmlns:xlink="http://www.w3.org/1999/xlink">
<g><path style="opacity:1" fill="#345183" d="M 293.5,98.5 C 297.79,101.255 302.457,103.421 307.5,105C 306.737,105.944 305.737,106.444 304.5,106.5C 302.547,105.844 300.547,105.511 298.5,105.5C 297.01,103.72 295.01,103.054 292.5,103.5C 260.44,93.9795 228.44,94.3128 196.5,104.5C 194.973,104.427 193.973,105.094 193.5,106.5C 190.574,107.698 187.574,108.698 184.5,109.5C 182.453,109.511 180.453,109.844 178.5,110.5C 176.197,110.124 175.863,109.124 177.5,107.5C 180.567,105.587 183.901,104.253 187.5,103.5C 190.272,103.241 192.605,102.241 194.5,100.5C 219.398,91.796 245.065,89.296 271.5,93C 279.067,94.3648 286.4,96.1981 293.5,98.5 Z"/></g>
<g><path style="opacity:0.447" fill="#7b8ba7" d="M 194.5,100.5 C 192.605,102.241 190.272,103.241 187.5,103.5C 189.32,101.552 191.654,100.552 194.5,100.5 Z"/></g>
<g><path style="opacity:0.737" fill="#798aae" d="M 292.5,103.5 C 295.01,103.054 297.01,103.72 298.5,105.5C 296.302,105.125 294.302,104.458 292.5,103.5 Z"/></g>
<g><path style="opacity:0.004" fill="#cdd9eb" d="M 196.5,104.5 C 196.027,105.906 195.027,106.573 193.5,106.5C 193.973,105.094 194.973,104.427 196.5,104.5 Z"/></g>
<g><path style="opacity:0.996" fill="#506891" d="M 293.5,98.5 C 301.346,100.429 308.679,103.429 315.5,107.5C 314.167,107.5 312.833,107.5 311.5,107.5C 311.433,108.959 311.766,110.292 312.5,111.5C 307.675,109.676 303.008,107.676 298.5,105.5C 300.547,105.511 302.547,105.844 304.5,106.5C 305.737,106.444 306.737,105.944 307.5,105C 302.457,103.421 297.79,101.255 293.5,98.5 Z"/></g>
<g><path style="opacity:0.996" fill="#2d4b7d" d="M 315.5,107.5 C 318.442,108.304 321.109,109.638 323.5,111.5C 322.082,113.308 320.082,113.975 317.5,113.5C 315.716,113.107 314.05,112.441 312.5,111.5C 311.766,110.292 311.433,108.959 311.5,107.5C 312.833,107.5 314.167,107.5 315.5,107.5 Z"/></g>
<g><path style="opacity:1" fill="#6db274" d="M 236.5,114.5 C 235.391,115.29 234.058,115.79 232.5,116C 234.345,117.128 236.345,117.628 238.5,117.5C 237.415,119.582 235.915,119.916 234,118.5C 231.828,119.509 230.662,121.176 230.5,123.5C 234.079,123.766 234.413,125.099 231.5,127.5C 232.651,143.456 232.818,159.456 232,175.5C 230.409,177.927 229.575,180.593 229.5,183.5C 233.128,183.631 235.628,181.964 237,178.5C 237.383,179.056 237.883,179.389 238.5,179.5C 240.167,179.5 241.833,179.5 243.5,179.5C 243.5,179.833 243.5,180.167 243.5,180.5C 239.957,182.438 236.29,184.105 232.5,185.5C 229.552,185.223 226.719,185.556 224,186.5C 223.833,186 223.667,185.5 223.5,185C 224.723,183.28 225.723,181.447 226.5,179.5C 224.556,161.608 223.889,143.608 224.5,125.5C 225.822,125.33 226.989,125.663 228,126.5C 228.692,125.975 229.192,125.308 229.5,124.5C 221.425,121.777 221.759,119.944 230.5,119C 229.833,118 229.167,117 228.5,116C 231.063,114.921 233.729,114.421 236.5,114.5 Z"/></g>
<g><path style="opacity:1" fill="#8ab947" d="M 271.5,116.5 C 275.764,116.344 279.764,117.011 283.5,118.5C 281.5,118.5 279.5,118.5 277.5,118.5C 277.5,119.5 277.5,120.5 277.5,121.5C 278.675,121.281 279.675,121.614 280.5,122.5C 280.099,128.882 280.099,135.382 280.5,142C 280.455,148.007 279.788,153.84 278.5,159.5C 280.577,161.082 282.91,162.082 285.5,162.5C 285.167,163.167 284.833,163.833 284.5,164.5C 284.167,164.5 283.833,164.5 283.5,164.5C 280.391,164.264 277.391,164.597 274.5,165.5C 272.42,164.956 270.42,164.122 268.5,163C 270.307,162.072 271.974,160.906 273.5,159.5C 274.833,149.167 274.833,138.833 273.5,128.5C 272.155,127.653 271.155,126.487 270.5,125C 272.5,124.167 274.5,123.333 276.5,122.5C 275.157,120.163 273.49,118.163 271.5,116.5 Z"/></g>
<g><path style="opacity:0.941" fill="#a5bf6b" d="M 287.5,118.5 C 293.267,119.531 298.601,121.531 303.5,124.5C 301.801,124.66 300.134,124.494 298.5,124C 294.504,122.669 290.837,120.835 287.5,118.5 Z"/></g>
<g><path style="opacity:1" fill="#60b086" d="M 214.5,118.5 C 212.678,120.823 210.678,122.989 208.5,125C 210.18,125.034 211.68,125.201 213,125.5C 213.5,147.164 213.667,168.831 213.5,190.5C 216.833,190.5 220.167,190.5 223.5,190.5C 222.486,191.674 221.153,192.34 219.5,192.5C 214.515,193.743 209.681,195.41 205,197.5C 203.779,196.226 202.946,194.726 202.5,193C 203.318,170.197 203.818,147.364 204,124.5C 204.837,126.007 206.004,126.507 207.5,126C 207.507,124.417 207.174,122.751 206.5,121C 209.154,120.059 211.821,119.226 214.5,118.5 Z"/></g>
<g><path style="opacity:1" fill="#75b467" d="M 236.5,114.5 C 237.5,114.5 238.5,114.5 239.5,114.5C 242.887,115.018 246.221,115.851 249.5,117C 248.624,118.585 247.291,119.585 245.5,120C 246.759,120.923 248.092,121.757 249.5,122.5C 248.675,123.386 247.675,123.719 246.5,123.5C 246.319,137.846 246.653,152.179 247.5,166.5C 247.167,169.167 246.833,171.833 246.5,174.5C 243.036,176.208 243.703,176.874 248.5,176.5C 246.58,177.065 244.913,178.065 243.5,179.5C 241.833,179.5 240.167,179.5 238.5,179.5C 239.23,178.288 240.23,177.288 241.5,176.5C 241.192,175.692 240.692,175.025 240,174.5C 239.5,157.503 239.333,140.503 239.5,123.5C 241.199,123.66 242.866,123.494 244.5,123C 243.737,122.056 242.737,121.556 241.5,121.5C 235.878,123.315 235.211,122.315 239.5,118.5C 239.376,117.893 239.043,117.56 238.5,117.5C 236.345,117.628 234.345,117.128 232.5,116C 234.058,115.79 235.391,115.29 236.5,114.5 Z"/></g>
<g><path style="opacity:1" fill="#6cb37e" d="M 265.5,113.5 C 256.651,113.174 247.984,113.507 239.5,114.5C 238.5,114.5 237.5,114.5 236.5,114.5C 233.729,114.421 231.063,114.921 228.5,116C 229.167,117 229.833,118 230.5,119C 221.759,119.944 221.425,121.777 229.5,124.5C 229.192,125.308 228.692,125.975 228,126.5C 226.989,125.663 225.822,125.33 224.5,125.5C 223.889,143.608 224.556,161.608 226.5,179.5C 225.723,181.447 224.723,183.28 223.5,185C 223.667,185.5 223.833,186 224,186.5C 226.719,185.556 229.552,185.223 232.5,185.5C 229.856,187.723 226.856,189.389 223.5,190.5C 220.167,190.5 216.833,190.5 213.5,190.5C 213.667,168.831 213.5,147.164 213,125.5C 211.68,125.201 210.18,125.034 208.5,125C 210.678,122.989 212.678,120.823 214.5,118.5C 214.833,117.833 215.167,117.167 215.5,116.5C 220.295,115.018 225.295,113.851 230.5,113C 242.341,112.174 254.007,112.341 265.5,113.5 Z"/></g>
<g><path style="opacity:1" fill="#85b84e" d="M 266.5,116.5 C 268.167,116.5 269.833,116.5 271.5,116.5C 273.49,118.163 275.157,120.163 276.5,122.5C 274.5,123.333 272.5,124.167 270.5,125C 271.155,126.487 272.155,127.653 273.5,128.5C 274.833,138.833 274.833,149.167 273.5,159.5C 271.974,160.906 270.307,162.072 268.5,163C 270.42,164.122 272.42,164.956 274.5,165.5C 273.5,166.167 272.5,166.833 271.5,167.5C 266.675,167.668 265.008,165.668 266.5,161.5C 261.244,161.078 260.744,160.078 265,158.5C 265.333,148.5 265.667,138.5 266,128.5C 266.5,128 267,127.5 267.5,127C 265.833,126 264.167,125 262.5,124C 264.044,123.71 265.377,123.044 266.5,122C 266.402,120.049 266.402,118.215 266.5,116.5 Z"/></g>
<g><path style="opacity:1" fill="#90ba40" d="M 283.5,118.5 C 284.833,118.5 286.167,118.5 287.5,118.5C 290.837,120.835 294.504,122.669 298.5,124C 300.134,124.494 301.801,124.66 303.5,124.5C 306.46,126.647 309.793,128.314 313.5,129.5C 315.03,131.346 317.03,132.346 319.5,132.5C 327.956,136.726 335.289,142.393 341.5,149.5C 341.539,150.583 341.873,151.583 342.5,152.5C 333.41,153.29 324.41,154.456 315.5,156C 313.026,156.037 311.026,156.87 309.5,158.5C 308.833,158.5 308.167,158.5 307.5,158.5C 300.128,159.135 292.795,160.469 285.5,162.5C 282.91,162.082 280.577,161.082 278.5,159.5C 279.788,153.84 280.455,148.007 280.5,142C 280.099,135.382 280.099,128.882 280.5,122.5C 279.675,121.614 278.675,121.281 277.5,121.5C 277.5,120.5 277.5,119.5 277.5,118.5C 279.5,118.5 281.5,118.5 283.5,118.5 Z"/></g>
<g><path style="opacity:1" fill="#58ad94" d="M 202.5,120.5 C 201.038,122.972 199.872,125.639 199,128.5C 198.828,151.073 198.328,173.573 197.5,196C 201.404,197.182 202.238,199.349 200,202.5C 198.698,203.085 197.531,203.751 196.5,204.5C 194.952,204.821 194.285,205.821 194.5,207.5C 193.022,207.762 191.689,207.429 190.5,206.5C 189.947,182.87 190.613,159.203 192.5,135.5C 191.127,135.657 189.793,135.49 188.5,135C 189.645,131.878 190.645,128.711 191.5,125.5C 194.285,126.084 195.952,125.084 196.5,122.5C 198.142,120.919 200.142,120.253 202.5,120.5 Z"/></g>
<g><path style="opacity:1" fill="#60af8e" d="M 215.5,116.5 C 215.167,117.167 214.833,117.833 214.5,118.5C 211.821,119.226 209.154,120.059 206.5,121C 207.174,122.751 207.507,124.417 207.5,126C 206.004,126.507 204.837,126.007 204,124.5C 203.818,147.364 203.318,170.197 202.5,193C 202.946,194.726 203.779,196.226 205,197.5C 209.681,195.41 214.515,193.743 219.5,192.5C 211.699,197.238 204.033,202.238 196.5,207.5C 196.5,206.5 196.5,205.5 196.5,204.5C 197.531,203.751 198.698,203.085 200,202.5C 202.238,199.349 201.404,197.182 197.5,196C 198.328,173.573 198.828,151.073 199,128.5C 199.872,125.639 201.038,122.972 202.5,120.5C 206.491,118.394 210.824,117.061 215.5,116.5 Z"/></g>
<g><path style="opacity:1" fill="#7bb661" d="M 239.5,114.5 C 247.984,113.507 256.651,113.174 265.5,113.5C 273.228,113.934 280.561,115.601 287.5,118.5C 286.167,118.5 284.833,118.5 283.5,118.5C 279.764,117.011 275.764,116.344 271.5,116.5C 269.833,116.5 268.167,116.5 266.5,116.5C 264.183,115.466 263.183,116.466 263.5,119.5C 261.897,119.688 260.563,119.188 259.5,118C 261.891,117.309 261.891,116.309 259.5,115C 258.207,114.51 256.873,114.343 255.5,114.5C 257.431,117.764 256.431,119.597 252.5,120C 253.5,120.833 254.5,121.667 255.5,122.5C 253.49,123.065 251.824,124.065 250.5,125.5C 251.242,126.287 252.075,126.953 253,127.5C 253.108,142.896 253.941,157.896 255.5,172.5C 253.437,174.082 251.104,175.415 248.5,176.5C 243.703,176.874 243.036,176.208 246.5,174.5C 246.833,171.833 247.167,169.167 247.5,166.5C 246.653,152.179 246.319,137.846 246.5,123.5C 247.675,123.719 248.675,123.386 249.5,122.5C 248.092,121.757 246.759,120.923 245.5,120C 247.291,119.585 248.624,118.585 249.5,117C 246.221,115.851 242.887,115.018 239.5,114.5 Z"/></g>
<g><path style="opacity:1" fill="#7eb658" d="M 266.5,116.5 C 266.402,118.215 266.402,120.049 266.5,122C 265.377,123.044 264.044,123.71 262.5,124C 264.167,125 265.833,126 267.5,127C 267,127.5 266.5,128 266,128.5C 265.667,138.5 265.333,148.5 265,158.5C 260.744,160.078 261.244,161.078 266.5,161.5C 265.008,165.668 266.675,167.668 271.5,167.5C 266.383,169.537 261.05,171.204 255.5,172.5C 253.941,157.896 253.108,142.896 253,127.5C 252.075,126.953 251.242,126.287 250.5,125.5C 251.824,124.065 253.49,123.065 255.5,122.5C 254.5,121.667 253.5,120.833 252.5,120C 256.431,119.597 257.431,117.764 255.5,114.5C 256.873,114.343 258.207,114.51 259.5,115C 261.891,116.309 261.891,117.309 259.5,118C 260.563,119.188 261.897,119.688 263.5,119.5C 263.183,116.466 264.183,115.466 266.5,116.5 Z"/></g>
<g><path style="opacity:0.584" fill="#6d82a1" d="M 150.5,124.5 C 149.415,126.587 147.749,127.92 145.5,128.5C 146.585,126.413 148.251,125.08 150.5,124.5 Z"/></g>
<g><path style="opacity:1" fill="#71b36d" d="M 238.5,117.5 C 239.043,117.56 239.376,117.893 239.5,118.5C 235.211,122.315 235.878,123.315 241.5,121.5C 242.737,121.556 243.737,122.056 244.5,123C 242.866,123.494 241.199,123.66 239.5,123.5C 239.333,140.503 239.5,157.503 240,174.5C 240.692,175.025 241.192,175.692 241.5,176.5C 240.23,177.288 239.23,178.288 238.5,179.5C 237.883,179.389 237.383,179.056 237,178.5C 235.628,181.964 233.128,183.631 229.5,183.5C 229.575,180.593 230.409,177.927 232,175.5C 232.818,159.456 232.651,143.456 231.5,127.5C 234.413,125.099 234.079,123.766 230.5,123.5C 230.662,121.176 231.828,119.509 234,118.5C 235.915,119.916 237.415,119.582 238.5,117.5 Z"/></g>
<g><path style="opacity:0.576" fill="#b8ce83" d="M 303.5,124.5 C 307.42,125.127 310.753,126.793 313.5,129.5C 309.793,128.314 306.46,126.647 303.5,124.5 Z"/></g>
<g><path style="opacity:0.996" fill="#3c5783" d="M 323.5,111.5 C 334.908,117.229 345.241,124.563 354.5,133.5C 353.807,134.518 353.141,135.518 352.5,136.5C 350.5,135.5 348.5,134.5 346.5,133.5C 337.339,125.99 327.673,119.324 317.5,113.5C 320.082,113.975 322.082,113.308 323.5,111.5 Z"/></g>
<g><path style="opacity:0.388" fill="#c2d197" d="M 313.5,129.5 C 315.97,129.654 317.97,130.654 319.5,132.5C 317.03,132.346 315.03,131.346 313.5,129.5 Z"/></g>
<g><path style="opacity:1" fill="#50aba3" d="M 183.5,128.5 C 183.179,130.048 182.179,130.715 180.5,130.5C 180.5,131.5 180.5,132.5 180.5,133.5C 185.451,132.601 186.451,133.935 183.5,137.5C 184.094,161.346 184.761,185.346 185.5,209.5C 186.192,210.025 186.692,210.692 187,211.5C 188.356,210.62 189.856,210.286 191.5,210.5C 186.473,214.853 181.14,218.853 175.5,222.5C 174.005,220.203 173.005,217.87 172.5,215.5C 170.899,190.729 171.399,166.062 174,141.5C 175.578,140.289 175.745,138.955 174.5,137.5C 171.798,138.798 171.131,138.131 172.5,135.5C 175.65,132.421 179.317,130.087 183.5,128.5 Z"/></g>
<g><path style="opacity:1" fill="#54ac99" d="M 196.5,122.5 C 195.952,125.084 194.285,126.084 191.5,125.5C 190.645,128.711 189.645,131.878 188.5,135C 189.793,135.49 191.127,135.657 192.5,135.5C 190.613,159.203 189.947,182.87 190.5,206.5C 191.689,207.429 193.022,207.762 194.5,207.5C 194.285,205.821 194.952,204.821 196.5,204.5C 196.5,205.5 196.5,206.5 196.5,207.5C 194.816,208.527 193.149,209.527 191.5,210.5C 189.856,210.286 188.356,210.62 187,211.5C 186.692,210.692 186.192,210.025 185.5,209.5C 184.761,185.346 184.094,161.346 183.5,137.5C 186.451,133.935 185.451,132.601 180.5,133.5C 180.5,132.5 180.5,131.5 180.5,130.5C 182.179,130.715 183.179,130.048 183.5,128.5C 187.416,125.743 191.75,123.743 196.5,122.5 Z"/></g>
<g><path style="opacity:0.298" fill="#aebbcc" d="M 346.5,133.5 C 348.5,134.5 350.5,135.5 352.5,136.5C 349.804,137.569 347.804,136.569 346.5,133.5 Z"/></g>
<g><path style="opacity:1" fill="#415c89" d="M 177.5,107.5 C 175.863,109.124 176.197,110.124 178.5,110.5C 180.453,109.844 182.453,109.511 184.5,109.5C 132.68,135.479 102.68,177.145 94.5,234.5C 94.666,229.156 94.4994,223.823 94,218.5C 93.1482,219.571 92.3149,220.571 91.5,221.5C 93.0279,211.193 95.6946,201.193 99.5,191.5C 101.104,190.713 101.771,189.38 101.5,187.5C 102.709,183.703 104.209,180.036 106,176.5C 109.681,169.792 113.848,163.459 118.5,157.5C 119.906,157.027 120.573,156.027 120.5,154.5C 127.46,144.54 135.793,135.873 145.5,128.5C 147.749,127.92 149.415,126.587 150.5,124.5C 158.682,117.574 167.682,111.907 177.5,107.5 Z"/></g>
<g><path style="opacity:1" fill="#4babaa" d="M 172.5,135.5 C 171.131,138.131 171.798,138.798 174.5,137.5C 175.745,138.955 175.578,140.289 174,141.5C 171.399,166.062 170.899,190.729 172.5,215.5C 173.005,217.87 174.005,220.203 175.5,222.5C 172.823,225.509 169.823,228.176 166.5,230.5C 166.5,228.833 166.5,227.167 166.5,225.5C 160.359,225.899 160.025,224.899 165.5,222.5C 166.791,194.854 166.791,167.521 165.5,140.5C 167.296,138.1 169.63,136.433 172.5,135.5 Z"/></g>
<g><path style="opacity:1" fill="#47aab2" d="M 165.5,140.5 C 166.791,167.521 166.791,194.854 165.5,222.5C 160.025,224.899 160.359,225.899 166.5,225.5C 166.5,227.167 166.5,228.833 166.5,230.5C 163.461,233.54 160.127,236.206 156.5,238.5C 156.586,237.504 156.252,236.671 155.5,236C 156.793,235.51 158.127,235.343 159.5,235.5C 159.98,231.694 158.98,228.361 156.5,225.5C 156.846,203.253 157.846,181.086 159.5,159C 159.167,158.5 158.833,158 158.5,157.5C 156.807,159.279 154.807,159.779 152.5,159C 157.682,156.206 157.682,153.706 152.5,151.5C 155.948,146.713 160.281,143.046 165.5,140.5 Z"/></g>
<g><path style="opacity:0.931" fill="#a2bb6b" d="M 341.5,149.5 C 343.296,150.793 344.963,152.293 346.5,154C 334.098,155.082 321.764,156.582 309.5,158.5C 311.026,156.87 313.026,156.037 315.5,156C 324.41,154.456 333.41,153.29 342.5,152.5C 341.873,151.583 341.539,150.583 341.5,149.5 Z"/></g>
<g><path style="opacity:0.294" fill="#afbcd2" d="M 120.5,154.5 C 120.573,156.027 119.906,157.027 118.5,157.5C 118.427,155.973 119.094,154.973 120.5,154.5 Z"/></g>
<g><path style="opacity:0.908" fill="#a7c172" d="M 307.5,158.5 C 300.03,160.872 292.363,162.872 284.5,164.5C 284.833,163.833 285.167,163.167 285.5,162.5C 292.795,160.469 300.128,159.135 307.5,158.5 Z"/></g>
<g><path style="opacity:1" fill="#375586" d="M 370.5,162.5 C 365.871,162.529 361.371,161.863 357,160.5C 355.5,160.667 354,160.833 352.5,161C 354.359,162.981 356.692,163.981 359.5,164C 356.634,165.457 353.634,165.79 350.5,165C 351.798,162.605 350.965,161.438 348,161.5C 342.524,162.213 337.024,162.713 331.5,163C 335.894,163.303 340.227,163.97 344.5,165C 344,165.5 343.5,166 343,166.5C 336.231,167.04 329.564,166.373 323,164.5C 316.902,165.697 310.735,166.363 304.5,166.5C 316.087,162.779 328.087,160.612 340.5,160C 348.833,159.333 357.167,159.333 365.5,160C 367.315,160.757 368.981,161.59 370.5,162.5 Z"/></g>
<g><path style="opacity:1" fill="#45a9b8" d="M 152.5,151.5 C 157.682,153.706 157.682,156.206 152.5,159C 154.807,159.779 156.807,159.279 158.5,157.5C 158.833,158 159.167,158.5 159.5,159C 157.846,181.086 156.846,203.253 156.5,225.5C 158.98,228.361 159.98,231.694 159.5,235.5C 158.127,235.343 156.793,235.51 155.5,236C 156.252,236.671 156.586,237.504 156.5,238.5C 151.215,244.452 145.548,250.119 139.5,255.5C 140.425,251.525 142.592,248.192 146,245.5C 147.666,246.34 147.833,245.84 146.5,244C 147.536,242.383 148.703,242.216 150,243.5C 150.445,241.406 149.612,239.906 147.5,239C 148.509,236.828 150.176,235.662 152.5,235.5C 152.5,234.167 152.5,232.833 152.5,231.5C 149.739,232.92 146.739,233.587 143.5,233.5C 143.5,232.167 143.5,230.833 143.5,229.5C 146.5,229.833 147.833,228.5 147.5,225.5C 146.325,225.719 145.325,225.386 144.5,224.5C 146.341,223.77 148.175,223.103 150,222.5C 150.667,204.167 150.667,185.833 150,167.5C 148.625,165.063 148.125,162.397 148.5,159.5C 149.675,159.719 150.675,159.386 151.5,158.5C 149.54,157.481 147.54,157.481 145.5,158.5C 147.5,155.833 149.833,153.5 152.5,151.5 Z"/></g>
<g><path style="opacity:1" fill="#1c4580" d="M 370.5,162.5 C 372.873,165.824 374.707,169.491 376,173.5C 376.333,177.833 376.667,182.167 377,186.5C 378.257,188.746 380.09,190.079 382.5,190.5C 384.695,192.424 387.028,194.091 389.5,195.5C 390.635,197.213 392.302,197.88 394.5,197.5C 396.216,197.629 397.883,197.962 399.5,198.5C 402.628,200.231 404.961,199.398 406.5,196C 410.114,195.064 413.78,194.564 417.5,194.5C 418.492,194.328 419.158,194.662 419.5,195.5C 418.28,197.282 417.614,199.282 417.5,201.5C 417.806,204.385 417.473,207.052 416.5,209.5C 415.147,212.279 413.48,214.279 411.5,215.5C 412.091,217.266 412.924,218.933 414,220.5C 415.756,219.015 416.923,219.348 417.5,221.5C 417.5,221.833 417.5,222.167 417.5,222.5C 416.504,222.586 415.671,222.252 415,221.5C 414.667,222.833 414.333,224.167 414,225.5C 413.465,223.729 412.631,223.396 411.5,224.5C 412.374,226.747 412.708,229.08 412.5,231.5C 411.5,231.5 410.5,231.5 409.5,231.5C 409.719,232.675 409.386,233.675 408.5,234.5C 406.257,231.789 404.257,231.956 402.5,235C 403.573,236.313 404.24,237.813 404.5,239.5C 402.486,241.707 401.486,244.373 401.5,247.5C 400.094,247.973 399.427,248.973 399.5,250.5C 398.5,250.5 397.5,250.5 396.5,250.5C 396.799,252.604 396.466,254.604 395.5,256.5C 393.709,257.924 391.875,259.258 390,260.5C 389.107,259.289 388.274,259.289 387.5,260.5C 388.752,262.001 389.752,263.668 390.5,265.5C 389.675,266.386 388.675,266.719 387.5,266.5C 387.773,264.549 387.107,263.049 385.5,262C 386.833,257 386.833,252 385.5,247C 378.624,246.533 371.958,246.033 365.5,245.5C 364.833,245.833 364.167,246.167 363.5,246.5C 365.078,247.298 366.744,247.798 368.5,248C 366.381,248.342 366.047,249.175 367.5,250.5C 363.474,251.069 359.474,252.069 355.5,253.5C 352.544,254.137 349.544,254.637 346.5,255C 347.337,256.011 347.67,257.178 347.5,258.5C 342.462,257.448 338.462,258.948 335.5,263C 334.216,263.684 333.049,263.517 332,262.5C 331.682,264.061 330.849,265.228 329.5,266C 329.833,266.333 330.167,266.667 330.5,267C 329.552,267.483 328.552,267.649 327.5,267.5C 327.5,268.833 327.5,270.167 327.5,271.5C 323.835,270.781 320.168,269.948 316.5,269C 317.973,268.29 318.64,267.124 318.5,265.5C 320.932,264.25 323.266,262.75 325.5,261C 327.464,259.549 328.797,257.716 329.5,255.5C 331.607,253.273 333.94,251.273 336.5,249.5C 339.167,248.833 340.833,247.167 341.5,244.5C 344.686,243.644 347.353,241.977 349.5,239.5C 351.425,239.59 352.592,240.59 353,242.5C 353.833,241.667 354.667,240.833 355.5,240C 352.332,239.418 351.999,238.418 354.5,237C 351.371,236.883 350.205,235.383 351,232.5C 352.729,234.434 354.729,234.434 357,232.5C 357.167,232.167 357.333,231.833 357.5,231.5C 356.271,230.719 354.938,230.219 353.5,230C 355,229.167 356.167,228 357,226.5C 357.643,220.881 360.31,216.548 365,213.5C 365.844,211.537 365.344,210.204 363.5,209.5C 362.5,209.167 361.833,208.5 361.5,207.5C 360.769,205.251 359.769,203.084 358.5,201C 359.703,199.632 360.703,198.132 361.5,196.5C 360.833,196.167 360.167,195.833 359.5,195.5C 357.666,196.754 355.666,197.421 353.5,197.5C 354.024,193.69 352.357,191.69 348.5,191.5C 348.446,189.368 347.446,188.035 345.5,187.5C 344.791,186.596 343.791,186.263 342.5,186.5C 337.333,186.91 332.333,186.243 327.5,184.5C 323.171,184.363 318.504,184.53 313.5,185C 313.167,184.667 312.833,184.333 312.5,184C 314.833,183.667 317.167,183.333 319.5,183C 313.593,180.851 307.76,181.018 302,183.5C 300.37,182.287 298.536,181.454 296.5,181C 289.174,180.5 281.841,180.334 274.5,180.5C 274.167,180.5 273.833,180.5 273.5,180.5C 273.196,179.85 272.863,179.183 272.5,178.5C 275.167,177.5 277.833,176.5 280.5,175.5C 280.863,174.817 281.196,174.15 281.5,173.5C 285.819,172.965 290.152,172.465 294.5,172C 294.167,171.667 293.833,171.333 293.5,171C 296.774,169.798 300.107,168.798 303.5,168C 304.056,167.617 304.389,167.117 304.5,166.5C 310.735,166.363 316.902,165.697 323,164.5C 329.564,166.373 336.231,167.04 343,166.5C 343.5,166 344,165.5 344.5,165C 340.227,163.97 335.894,163.303 331.5,163C 337.024,162.713 342.524,162.213 348,161.5C 350.965,161.438 351.798,162.605 350.5,165C 353.634,165.79 356.634,165.457 359.5,164C 356.692,163.981 354.359,162.981 352.5,161C 354,160.833 355.5,160.667 357,160.5C 361.371,161.863 365.871,162.529 370.5,162.5 Z"/></g>
<g><path style="opacity:0.99" fill="#445e87" d="M 370.5,162.5 C 373.845,163.68 376.011,166.013 377,169.5C 378.161,174.416 378.827,179.416 379,184.5C 380.431,186.364 381.597,188.364 382.5,190.5C 380.09,190.079 378.257,188.746 377,186.5C 376.667,182.167 376.333,177.833 376,173.5C 374.707,169.491 372.873,165.824 370.5,162.5 Z"/></g>
<g><path style="opacity:1" fill="#4c628c" d="M 304.5,166.5 C 304.389,167.117 304.056,167.617 303.5,168C 300.107,168.798 296.774,169.798 293.5,171C 293.833,171.333 294.167,171.667 294.5,172C 290.152,172.465 285.819,172.965 281.5,173.5C 288.644,169.792 296.311,167.459 304.5,166.5 Z"/></g>
<g><path style="opacity:0.902" fill="#9cc282" d="M 283.5,164.5 C 270.024,169.229 256.691,174.563 243.5,180.5C 243.5,180.167 243.5,179.833 243.5,179.5C 244.913,178.065 246.58,177.065 248.5,176.5C 251.104,175.415 253.437,174.082 255.5,172.5C 261.05,171.204 266.383,169.537 271.5,167.5C 272.5,166.833 273.5,166.167 274.5,165.5C 277.391,164.597 280.391,164.264 283.5,164.5 Z"/></g>
<g><path style="opacity:0.894" fill="#44597e" d="M 281.5,173.5 C 281.196,174.15 280.863,174.817 280.5,175.5C 277.833,176.5 275.167,177.5 272.5,178.5C 272.863,179.183 273.196,179.85 273.5,180.5C 271.712,180.785 270.045,180.452 268.5,179.5C 272.4,176.719 276.733,174.719 281.5,173.5 Z"/></g>
<g><path style="opacity:1" fill="#3ca7c1" d="M 139.5,255.5 C 138.833,256.833 137.833,257.833 136.5,258.5C 136.962,254.697 137.962,251.031 139.5,247.5C 136.453,246.855 134.287,247.855 133,250.5C 132.356,246.432 133.523,242.932 136.5,240C 135.343,224.241 135.176,208.408 136,192.5C 138.021,190.349 137.521,188.849 134.5,188C 134.448,185.902 134.782,183.736 135.5,181.5C 135.167,180.833 134.833,180.167 134.5,179.5C 131.119,184.203 127.453,188.536 123.5,192.5C 128.831,179.83 136.164,168.496 145.5,158.5C 147.54,157.481 149.54,157.481 151.5,158.5C 150.675,159.386 149.675,159.719 148.5,159.5C 148.125,162.397 148.625,165.063 150,167.5C 150.667,185.833 150.667,204.167 150,222.5C 148.175,223.103 146.341,223.77 144.5,224.5C 145.325,225.386 146.325,225.719 147.5,225.5C 147.833,228.5 146.5,229.833 143.5,229.5C 143.5,230.833 143.5,232.167 143.5,233.5C 146.739,233.587 149.739,232.92 152.5,231.5C 152.5,232.833 152.5,234.167 152.5,235.5C 150.176,235.662 148.509,236.828 147.5,239C 149.612,239.906 150.445,241.406 150,243.5C 148.703,242.216 147.536,242.383 146.5,244C 147.833,245.84 147.666,246.34 146,245.5C 142.592,248.192 140.425,251.525 139.5,255.5 Z"/></g>
<g><path style="opacity:1" fill="#345383" d="M 274.5,180.5 C 281.841,180.334 289.174,180.5 296.5,181C 298.536,181.454 300.37,182.287 302,183.5C 307.76,181.018 313.593,180.851 319.5,183C 317.167,183.333 314.833,183.667 312.5,184C 312.833,184.333 313.167,184.667 313.5,185C 318.504,184.53 323.171,184.363 327.5,184.5C 332.333,186.243 337.333,186.91 342.5,186.5C 319.557,188.017 296.89,186.017 274.5,180.5 Z"/></g>
<g><path style="opacity:0.576" fill="#a7b6c5" d="M 345.5,187.5 C 347.446,188.035 348.446,189.368 348.5,191.5C 347.026,190.564 346.026,189.23 345.5,187.5 Z"/></g>
<g><path style="opacity:0.039" fill="#d6dbed" d="M 101.5,187.5 C 101.771,189.38 101.104,190.713 99.5,191.5C 99.6596,189.847 100.326,188.514 101.5,187.5 Z"/></g>
<g><path style="opacity:1" fill="#39a6cb" d="M 136.5,258.5 C 130.471,265.525 124.471,272.525 118.5,279.5C 118.5,277.833 118.5,276.167 118.5,274.5C 119.5,274.5 120.5,274.5 121.5,274.5C 121.011,270.513 122.678,268.18 126.5,267.5C 126.377,264.412 127.377,261.745 129.5,259.5C 129.023,258.522 128.357,257.689 127.5,257C 127.763,253.942 127.93,250.775 128,247.5C 129.895,245.565 129.562,243.898 127,242.5C 126.907,238.159 126.907,233.826 127,229.5C 126.667,229.833 126.333,230.167 126,230.5C 124.985,227.442 123.819,224.442 122.5,221.5C 125.095,216.395 126.095,217.062 125.5,223.5C 126.5,223.5 127.5,223.5 128.5,223.5C 128.663,221.143 128.497,218.81 128,216.5C 127.333,215.167 126.667,215.167 126,216.5C 125.833,215.333 125.667,214.167 125.5,213C 125.949,210.494 126.949,208.327 128.5,206.5C 126.947,203 125.113,199.667 123,196.5C 120.248,203.629 117.915,210.963 116,218.5C 115.617,219.056 115.117,219.389 114.5,219.5C 116.145,209.866 119.145,200.866 123.5,192.5C 127.453,188.536 131.119,184.203 134.5,179.5C 134.833,180.167 135.167,180.833 135.5,181.5C 134.782,183.736 134.448,185.902 134.5,188C 137.521,188.849 138.021,190.349 136,192.5C 135.176,208.408 135.343,224.241 136.5,240C 133.523,242.932 132.356,246.432 133,250.5C 134.287,247.855 136.453,246.855 139.5,247.5C 137.962,251.031 136.962,254.697 136.5,258.5 Z"/></g>
<g><path style="opacity:0.369" fill="#a8c078" d="M 327.5,197.5 C 309.227,195.45 290.894,194.45 272.5,194.5C 272.167,194.5 271.833,194.5 271.5,194.5C 269.5,194.833 267.5,195.167 265.5,195.5C 262.5,195.5 259.5,195.5 256.5,195.5C 259.641,194.679 262.975,194.179 266.5,194C 278.833,193.333 291.167,193.333 303.5,194C 311.776,194.229 319.776,195.396 327.5,197.5 Z"/></g>
<g><path style="opacity:0.996" fill="#415b83" d="M 417.5,194.5 C 413.78,194.564 410.114,195.064 406.5,196C 404.961,199.398 402.628,200.231 399.5,198.5C 402.439,197.03 405.439,195.53 408.5,194C 411.696,193.195 414.696,193.362 417.5,194.5 Z"/></g>
<g><path style="opacity:0.137" fill="#98a6be" d="M 389.5,195.5 C 391.403,195.796 393.07,196.463 394.5,197.5C 392.302,197.88 390.635,197.213 389.5,195.5 Z"/></g>
<g><path style="opacity:0.471" fill="#a4c39c" d="M 254.5,195.5 C 254.082,196.222 253.416,196.722 252.5,197C 248.83,197.548 245.163,198.048 241.5,198.5C 245.564,196.862 249.897,195.862 254.5,195.5 Z"/></g>
<g><path style="opacity:1" fill="#3b5787" d="M 348.5,191.5 C 352.357,191.69 354.024,193.69 353.5,197.5C 355.666,197.421 357.666,196.754 359.5,195.5C 360.167,195.833 360.833,196.167 361.5,196.5C 360.703,198.132 359.703,199.632 358.5,201C 359.769,203.084 360.769,205.251 361.5,207.5C 356.439,202.771 352.106,197.438 348.5,191.5 Z"/></g>
<g><path style="opacity:1" fill="#87b94d" d="M 272.5,195.5 C 279.913,194.432 281.247,196.599 276.5,202C 277.5,202.833 278.5,203.667 279.5,204.5C 277.343,205.79 275.01,206.624 272.5,207C 274.433,207.251 276.266,207.751 278,208.5C 278.833,229.175 278.666,249.841 277.5,270.5C 276.5,270.833 275.833,271.5 275.5,272.5C 276.881,274.691 278.881,276.024 281.5,276.5C 278.331,279.164 277.165,282.497 278,286.5C 278.465,285.069 279.299,283.903 280.5,283C 282.631,282.457 284.631,281.624 286.5,280.5C 285.167,279.5 285.167,278.5 286.5,277.5C 288.396,276.534 290.396,276.201 292.5,276.5C 290.823,278.54 289.156,280.54 287.5,282.5C 284.412,282.197 282.746,283.53 282.5,286.5C 280.5,287.167 278.5,287.833 276.5,288.5C 276.719,289.675 276.386,290.675 275.5,291.5C 274.261,291.942 273.261,292.609 272.5,293.5C 270.816,291.983 269.483,290.15 268.5,288C 268.928,259.135 269.928,230.301 271.5,201.5C 263.523,200.631 263.523,199.464 271.5,198C 272.252,197.329 272.586,196.496 272.5,195.5 Z"/></g>
<g><path style="opacity:0.565" fill="#506687" d="M 419.5,195.5 C 421.196,195.685 422.529,196.519 423.5,198C 421.422,199.077 419.422,200.243 417.5,201.5C 417.614,199.282 418.28,197.282 419.5,195.5 Z"/></g>
<g><path style="opacity:1" fill="#76b467" d="M 254.5,195.5 C 255.167,195.5 255.833,195.5 256.5,195.5C 259.5,195.5 262.5,195.5 265.5,195.5C 259.022,195.591 253.022,197.424 247.5,201C 250.202,201.84 252.868,202.673 255.5,203.5C 253.525,205.09 251.192,206.257 248.5,207C 249,207.5 249.5,208 250,208.5C 250.333,240.167 250.667,271.833 251,303.5C 251.781,304.729 252.281,306.062 252.5,307.5C 250.117,309.237 248.451,311.57 247.5,314.5C 247.833,314.833 248.167,315.167 248.5,315.5C 250.618,314.054 252.951,313.387 255.5,313.5C 252.833,316.833 249.833,319.833 246.5,322.5C 244.901,322.768 243.568,322.434 242.5,321.5C 242.396,318.91 243.063,316.577 244.5,314.5C 243.5,312.5 242.5,310.5 241.5,308.5C 242,306.5 242.5,304.5 243,302.5C 243.667,271.167 243.667,239.833 243,208.5C 242.075,207.953 241.242,207.287 240.5,206.5C 241.365,206.436 242.365,206.103 243.5,205.5C 243.997,203.784 244.331,202.117 244.5,200.5C 243.311,199.571 241.978,199.238 240.5,199.5C 240.5,199.167 240.5,198.833 240.5,198.5C 240.833,198.5 241.167,198.5 241.5,198.5C 245.163,198.048 248.83,197.548 252.5,197C 253.416,196.722 254.082,196.222 254.5,195.5 Z"/></g>
<g><path style="opacity:1" fill="#81b754" d="M 271.5,194.5 C 271.833,194.5 272.167,194.5 272.5,194.5C 272.5,194.833 272.5,195.167 272.5,195.5C 272.586,196.496 272.252,197.329 271.5,198C 263.523,199.464 263.523,200.631 271.5,201.5C 269.928,230.301 268.928,259.135 268.5,288C 269.483,290.15 270.816,291.983 272.5,293.5C 272.5,294.5 272.5,295.5 272.5,296.5C 270.473,296.338 268.473,296.505 266.5,297C 266.833,297.333 267.167,297.667 267.5,298C 266.271,299.529 264.771,300.696 263,301.5C 262.517,300.552 262.351,299.552 262.5,298.5C 262.146,295.579 263.146,293.246 265.5,291.5C 264.619,290.029 263.286,289.196 261.5,289C 262,288.5 262.5,288 263,287.5C 263.18,260.637 263.68,233.803 264.5,207C 263.042,204.879 261.042,203.546 258.5,203C 259.833,202.667 261.167,202.333 262.5,202C 263.833,201 263.833,200 262.5,199C 265.044,197.908 267.711,197.241 270.5,197C 271.252,196.329 271.586,195.496 271.5,194.5 Z"/></g>
<g><path style="opacity:1" fill="#90ba40" d="M 272.5,195.5 C 272.5,195.167 272.5,194.833 272.5,194.5C 290.894,194.45 309.227,195.45 327.5,197.5C 328.167,197.5 328.833,197.5 329.5,197.5C 330.252,199.1 331.252,200.6 332.5,202C 333.784,202.684 334.951,202.517 336,201.5C 338.579,203.355 341.412,204.688 344.5,205.5C 345.156,207.484 345.822,209.484 346.5,211.5C 343.798,215.089 342.131,219.089 341.5,223.5C 338.524,227.422 335.524,231.422 332.5,235.5C 331.571,236.689 331.238,238.022 331.5,239.5C 330.833,240.833 329.833,241.833 328.5,242.5C 326.442,243.933 324.108,244.6 321.5,244.5C 321.5,246.167 321.5,247.833 321.5,249.5C 315.526,255.139 309.526,260.805 303.5,266.5C 299.149,265.533 296.815,267.2 296.5,271.5C 294.801,271.34 293.134,271.506 291.5,272C 293.107,273.049 293.773,274.549 293.5,276.5C 293.167,276.5 292.833,276.5 292.5,276.5C 290.396,276.201 288.396,276.534 286.5,277.5C 285.167,278.5 285.167,279.5 286.5,280.5C 284.631,281.624 282.631,282.457 280.5,283C 279.299,283.903 278.465,285.069 278,286.5C 277.165,282.497 278.331,279.164 281.5,276.5C 278.881,276.024 276.881,274.691 275.5,272.5C 275.833,271.5 276.5,270.833 277.5,270.5C 278.666,249.841 278.833,229.175 278,208.5C 276.266,207.751 274.433,207.251 272.5,207C 275.01,206.624 277.343,205.79 279.5,204.5C 278.5,203.667 277.5,202.833 276.5,202C 281.247,196.599 279.913,194.432 272.5,195.5 Z"/></g>
<g><path style="opacity:1" fill="#71b46d" d="M 240.5,199.5 C 241.978,199.238 243.311,199.571 244.5,200.5C 244.331,202.117 243.997,203.784 243.5,205.5C 242.365,206.103 241.365,206.436 240.5,206.5C 241.242,207.287 242.075,207.953 243,208.5C 243.667,239.833 243.667,271.167 243,302.5C 242.5,304.5 242,306.5 241.5,308.5C 242.5,310.5 243.5,312.5 244.5,314.5C 243.063,316.577 242.396,318.91 242.5,321.5C 240.9,320.748 239.4,319.748 238,318.5C 237.833,300 237.667,281.5 237.5,263C 237.506,244.115 238.173,225.449 239.5,207C 237.356,206.208 236.023,204.708 235.5,202.5C 237.485,201.953 239.151,200.953 240.5,199.5 Z"/></g>
<g><path style="opacity:1" fill="#a0bd63" d="M 329.5,197.5 C 335.547,198.355 340.547,201.022 344.5,205.5C 341.412,204.688 338.579,203.355 336,201.5C 334.951,202.517 333.784,202.684 332.5,202C 331.252,200.6 330.252,199.1 329.5,197.5 Z"/></g>
<g><path style="opacity:1" fill="#7db65a" d="M 271.5,194.5 C 271.586,195.496 271.252,196.329 270.5,197C 267.711,197.241 265.044,197.908 262.5,199C 263.833,200 263.833,201 262.5,202C 261.167,202.333 259.833,202.667 258.5,203C 261.042,203.546 263.042,204.879 264.5,207C 263.68,233.803 263.18,260.637 263,287.5C 262.5,288 262,288.5 261.5,289C 263.286,289.196 264.619,290.029 265.5,291.5C 263.146,293.246 262.146,295.579 262.5,298.5C 261.883,298.611 261.383,298.944 261,299.5C 260.125,296.785 258.292,295.452 255.5,295.5C 255.34,293.801 255.506,292.134 256,290.5C 256.333,290.833 256.667,291.167 257,291.5C 257.333,263.833 257.667,236.167 258,208.5C 258.925,207.953 259.758,207.287 260.5,206.5C 258.681,205.68 257.014,204.68 255.5,203.5C 252.868,202.673 250.202,201.84 247.5,201C 253.022,197.424 259.022,195.591 265.5,195.5C 267.5,195.167 269.5,194.833 271.5,194.5 Z"/></g>
<g><path style="opacity:1" fill="#64b080" d="M 222.5,205.5 C 222.452,246.651 222.452,287.818 222.5,329C 222.834,331.175 223.834,333.008 225.5,334.5C 225.192,335.308 224.692,335.975 224,336.5C 222.817,335.269 221.651,335.269 220.5,336.5C 221.376,337.251 222.376,337.751 223.5,338C 222.209,339.292 222.209,340.458 223.5,341.5C 223.5,342.833 223.5,344.167 223.5,345.5C 220.951,345.387 218.618,346.054 216.5,347.5C 216.167,347.167 215.833,346.833 215.5,346.5C 215.156,343.169 215.822,339.836 217.5,336.5C 216.345,296.189 216.178,255.856 217,215.5C 218.574,212.678 220.074,209.844 221.5,207C 219.068,205.913 219.402,205.413 222.5,205.5 Z"/></g>
<g><path style="opacity:1" fill="#6db372" d="M 235.5,202.5 C 236.023,204.708 237.356,206.208 239.5,207C 238.173,225.449 237.506,244.115 237.5,263C 237.667,281.5 237.833,300 238,318.5C 239.4,319.748 240.9,320.748 242.5,321.5C 243.568,322.434 244.901,322.768 246.5,322.5C 244.167,325.5 241.5,328.167 238.5,330.5C 235.921,330.083 233.754,330.75 232,332.5C 231.667,332.167 231.333,331.833 231,331.5C 231.769,328.645 232.269,325.645 232.5,322.5C 226.609,322.551 225.775,321.218 230,318.5C 230.667,281.833 230.667,245.167 230,208.5C 229.5,208 229,207.5 228.5,207C 230.211,204.481 232.545,202.981 235.5,202.5 Z"/></g>
<g><path style="opacity:1" fill="#7bb661" d="M 255.5,203.5 C 257.014,204.68 258.681,205.68 260.5,206.5C 259.758,207.287 258.925,207.953 258,208.5C 257.667,236.167 257.333,263.833 257,291.5C 256.667,291.167 256.333,290.833 256,290.5C 255.506,292.134 255.34,293.801 255.5,295.5C 258.292,295.452 260.125,296.785 261,299.5C 261.383,298.944 261.883,298.611 262.5,298.5C 262.351,299.552 262.517,300.552 263,301.5C 264.771,300.696 266.271,299.529 267.5,298C 267.167,297.667 266.833,297.333 266.5,297C 268.473,296.505 270.473,296.338 272.5,296.5C 267.167,302.5 261.5,308.167 255.5,313.5C 252.951,313.387 250.618,314.054 248.5,315.5C 248.167,315.167 247.833,314.833 247.5,314.5C 248.451,311.57 250.117,309.237 252.5,307.5C 252.281,306.062 251.781,304.729 251,303.5C 250.667,271.833 250.333,240.167 250,208.5C 249.5,208 249,207.5 248.5,207C 251.192,206.257 253.525,205.09 255.5,203.5 Z"/></g>
<g><path style="opacity:1" fill="#69b17a" d="M 240.5,198.5 C 240.5,198.833 240.5,199.167 240.5,199.5C 239.151,200.953 237.485,201.953 235.5,202.5C 232.545,202.981 230.211,204.481 228.5,207C 229,207.5 229.5,208 230,208.5C 230.667,245.167 230.667,281.833 230,318.5C 225.775,321.218 226.609,322.551 232.5,322.5C 232.269,325.645 231.769,328.645 231,331.5C 231.333,331.833 231.667,332.167 232,332.5C 233.754,330.75 235.921,330.083 238.5,330.5C 237.167,332.5 235.5,334.167 233.5,335.5C 231.005,336.199 228.672,337.199 226.5,338.5C 226.5,339.5 226.5,340.5 226.5,341.5C 225.5,341.5 224.5,341.5 223.5,341.5C 222.209,340.458 222.209,339.292 223.5,338C 222.376,337.751 221.376,337.251 220.5,336.5C 221.651,335.269 222.817,335.269 224,336.5C 224.692,335.975 225.192,335.308 225.5,334.5C 223.834,333.008 222.834,331.175 222.5,329C 222.452,287.818 222.452,246.651 222.5,205.5C 226.607,204.574 230.274,202.907 233.5,200.5C 235.515,199.076 237.848,198.41 240.5,198.5 Z"/></g>
<g><path style="opacity:1" fill="#64b187" d="M 233.5,200.5 C 230.274,202.907 226.607,204.574 222.5,205.5C 219.402,205.413 219.068,205.913 221.5,207C 220.074,209.844 218.574,212.678 217,215.5C 216.178,255.856 216.345,296.189 217.5,336.5C 215.822,339.836 215.156,343.169 215.5,346.5C 215.833,346.833 216.167,347.167 216.5,347.5C 218.618,346.054 220.951,345.387 223.5,345.5C 223.5,344.167 223.5,342.833 223.5,341.5C 224.5,341.5 225.5,341.5 226.5,341.5C 226.5,340.5 226.5,339.5 226.5,338.5C 228.672,337.199 231.005,336.199 233.5,335.5C 228.294,341.892 222.627,347.892 216.5,353.5C 214.278,353.822 212.444,353.155 211,351.5C 210.262,347.29 210.428,343.124 211.5,339C 209.488,337.848 209.322,336.682 211,335.5C 211.167,315.5 211.333,295.5 211.5,275.5C 211.486,254.319 211.153,233.486 210.5,213C 211.582,211.67 212.249,210.17 212.5,208.5C 214.989,208.759 216.656,207.759 217.5,205.5C 222.402,202.933 227.735,201.266 233.5,200.5 Z"/></g>
<g><path style="opacity:0.996" fill="#a1be64" d="M 344.5,205.5 C 348.169,207.438 349.336,210.438 348,214.5C 346.301,217.921 344.135,220.921 341.5,223.5C 342.131,219.089 343.798,215.089 346.5,211.5C 345.822,209.484 345.156,207.484 344.5,205.5 Z"/></g>
<g><path style="opacity:0.994" fill="#445b88" d="M 416.5,209.5 C 415.833,212.167 415.167,214.833 414.5,217.5C 419.236,217.009 420.236,218.343 417.5,221.5C 416.923,219.348 415.756,219.015 414,220.5C 412.924,218.933 412.091,217.266 411.5,215.5C 413.48,214.279 415.147,212.279 416.5,209.5 Z"/></g>
<g><path style="opacity:1" fill="#53ac99" d="M 193.5,221.5 C 194.117,221.611 194.617,221.944 195,222.5C 195.667,271.167 195.667,319.833 195,368.5C 194.338,369.984 193.504,371.317 192.5,372.5C 190.836,371.051 190.002,369.051 190,366.5C 189.333,324.5 189.333,282.5 190,240.5C 190.692,239.975 191.192,239.308 191.5,238.5C 189.841,237.002 188.175,235.502 186.5,234C 187.657,232.014 188.991,230.18 190.5,228.5C 189.64,226.728 188.307,225.395 186.5,224.5C 188.131,224.733 189.964,224.4 192,223.5C 193.03,223.164 193.53,222.497 193.5,221.5 Z"/></g>
<g><path style="opacity:1" fill="#58ae94" d="M 217.5,205.5 C 216.656,207.759 214.989,208.759 212.5,208.5C 209.577,210.309 207.077,212.642 205,215.5C 202.562,214.001 201.396,214.835 201.5,218C 201.748,219.716 202.415,221.216 203.5,222.5C 201.834,268.726 200.834,315.059 200.5,361.5C 201.098,362.795 201.598,364.128 202,365.5C 203.715,362.603 206.215,361.269 209.5,361.5C 208.2,364.432 206.2,366.766 203.5,368.5C 199.515,368.44 197.848,370.44 198.5,374.5C 196.142,374.747 194.142,374.081 192.5,372.5C 193.504,371.317 194.338,369.984 195,368.5C 195.667,319.833 195.667,271.167 195,222.5C 194.617,221.944 194.117,221.611 193.5,221.5C 192.522,221.189 191.855,220.522 191.5,219.5C 195.033,218.631 197.699,216.631 199.5,213.5C 205.006,209.88 211.006,207.214 217.5,205.5 Z"/></g>
<g><path style="opacity:1" fill="#4a618f" d="M 417.5,222.5 C 416.226,225.76 414.56,228.76 412.5,231.5C 412.708,229.08 412.374,226.747 411.5,224.5C 412.631,223.396 413.465,223.729 414,225.5C 414.333,224.167 414.667,222.833 415,221.5C 415.671,222.252 416.504,222.586 417.5,222.5 Z"/></g>
<g><path style="opacity:1" fill="#53ac9f" d="M 199.5,213.5 C 197.699,216.631 195.033,218.631 191.5,219.5C 191.855,220.522 192.522,221.189 193.5,221.5C 193.53,222.497 193.03,223.164 192,223.5C 189.964,224.4 188.131,224.733 186.5,224.5C 188.307,225.395 189.64,226.728 190.5,228.5C 188.991,230.18 187.657,232.014 186.5,234C 188.175,235.502 189.841,237.002 191.5,238.5C 191.192,239.308 190.692,239.975 190,240.5C 189.333,282.5 189.333,324.5 190,366.5C 190.002,369.051 190.836,371.051 192.5,372.5C 194.142,374.081 196.142,374.747 198.5,374.5C 197.848,370.44 199.515,368.44 203.5,368.5C 202.25,370.932 200.75,373.266 199,375.5C 198.275,376.059 197.442,376.392 196.5,376.5C 190.832,374.333 185.499,371.666 180.5,368.5C 179.472,367.213 179.805,366.046 181.5,365C 180.004,363.669 178.671,362.169 177.5,360.5C 178.689,359.571 180.022,359.238 181.5,359.5C 182.093,356.404 181.093,354.071 178.5,352.5C 179.689,351.571 181.022,351.238 182.5,351.5C 182.532,312.74 182.532,274.074 182.5,235.5C 182.598,233.063 183.598,231.063 185.5,229.5C 184.509,228.335 183.509,227.168 182.5,226C 183.429,224.923 184.096,223.756 184.5,222.5C 189.027,218.735 194.027,215.735 199.5,213.5 Z"/></g>
<g><path style="opacity:1" fill="#5dae8d" d="M 212.5,208.5 C 212.249,210.17 211.582,211.67 210.5,213C 211.153,233.486 211.486,254.319 211.5,275.5C 211.333,295.5 211.167,315.5 211,335.5C 209.322,336.682 209.488,337.848 211.5,339C 210.428,343.124 210.262,347.29 211,351.5C 212.444,353.155 214.278,353.822 216.5,353.5C 214.883,356.784 212.55,359.451 209.5,361.5C 206.215,361.269 203.715,362.603 202,365.5C 201.598,364.128 201.098,362.795 200.5,361.5C 200.834,315.059 201.834,268.726 203.5,222.5C 202.415,221.216 201.748,219.716 201.5,218C 201.396,214.835 202.562,214.001 205,215.5C 207.077,212.642 209.577,210.309 212.5,208.5 Z"/></g>
<g><path style="opacity:0.137" fill="#b5ca83" d="M 341.5,223.5 C 339.165,229.514 335.831,234.848 331.5,239.5C 331.238,238.022 331.571,236.689 332.5,235.5C 335.524,231.422 338.524,227.422 341.5,223.5 Z"/></g>
<g><path style="opacity:1" fill="#38a5d3" d="M 118.5,279.5 C 117.533,280.806 116.199,281.473 114.5,281.5C 109.216,260.704 109.216,240.038 114.5,219.5C 115.117,219.389 115.617,219.056 116,218.5C 117.915,210.963 120.248,203.629 123,196.5C 125.113,199.667 126.947,203 128.5,206.5C 126.949,208.327 125.949,210.494 125.5,213C 125.667,214.167 125.833,215.333 126,216.5C 126.667,215.167 127.333,215.167 128,216.5C 128.497,218.81 128.663,221.143 128.5,223.5C 127.5,223.5 126.5,223.5 125.5,223.5C 126.095,217.062 125.095,216.395 122.5,221.5C 123.819,224.442 124.985,227.442 126,230.5C 126.333,230.167 126.667,229.833 127,229.5C 126.907,233.826 126.907,238.159 127,242.5C 129.562,243.898 129.895,245.565 128,247.5C 127.93,250.775 127.763,253.942 127.5,257C 128.357,257.689 129.023,258.522 129.5,259.5C 127.377,261.745 126.377,264.412 126.5,267.5C 122.678,268.18 121.011,270.513 121.5,274.5C 120.5,274.5 119.5,274.5 118.5,274.5C 118.5,276.167 118.5,277.833 118.5,279.5 Z"/></g>
<g><path style="opacity:1" fill="#335284" d="M 363.5,209.5 C 365.344,210.204 365.844,211.537 365,213.5C 360.31,216.548 357.643,220.881 357,226.5C 356.167,228 355,229.167 353.5,230C 354.938,230.219 356.271,230.719 357.5,231.5C 357.333,231.833 357.167,232.167 357,232.5C 354.729,234.434 352.729,234.434 351,232.5C 350.205,235.383 351.371,236.883 354.5,237C 351.999,238.418 352.332,239.418 355.5,240C 354.667,240.833 353.833,241.667 353,242.5C 352.592,240.59 351.425,239.59 349.5,239.5C 347.353,241.977 344.686,243.644 341.5,244.5C 346.66,236.856 351.326,228.856 355.5,220.5C 357.94,216.771 360.94,213.605 364.5,211C 363.944,210.617 363.611,210.117 363.5,209.5 Z"/></g>
<g><path style="opacity:1" fill="#375584" d="M 412.5,231.5 C 409.314,237.218 405.648,242.552 401.5,247.5C 401.486,244.373 402.486,241.707 404.5,239.5C 404.24,237.813 403.573,236.313 402.5,235C 404.257,231.956 406.257,231.789 408.5,234.5C 409.386,233.675 409.719,232.675 409.5,231.5C 410.5,231.5 411.5,231.5 412.5,231.5 Z"/></g>
<g><path style="opacity:1" fill="#4daba6" d="M 184.5,222.5 C 184.096,223.756 183.429,224.923 182.5,226C 183.509,227.168 184.509,228.335 185.5,229.5C 183.598,231.063 182.598,233.063 182.5,235.5C 182.532,274.074 182.532,312.74 182.5,351.5C 181.022,351.238 179.689,351.571 178.5,352.5C 181.093,354.071 182.093,356.404 181.5,359.5C 180.022,359.238 178.689,359.571 177.5,360.5C 178.671,362.169 180.004,363.669 181.5,365C 179.805,366.046 179.472,367.213 180.5,368.5C 177.296,367.617 174.629,365.95 172.5,363.5C 171.859,362.518 171.193,361.518 170.5,360.5C 170.957,359.702 171.624,359.369 172.5,359.5C 173.794,358.71 174.961,357.71 176,356.5C 176.833,318.496 176.667,280.496 175.5,242.5C 174.148,241.476 172.815,240.476 171.5,239.5C 172.105,237.974 173.271,236.974 175,236.5C 175.483,235.552 175.649,234.552 175.5,233.5C 174.127,233.657 172.793,233.49 171.5,233C 173.923,232.303 175.589,230.803 176.5,228.5C 178.373,225.551 181.039,223.551 184.5,222.5 Z"/></g>
<g><path style="opacity:0.773" fill="#3b5787" d="M 94.5,234.5 C 92.8347,257.859 95.8347,280.526 103.5,302.5C 103.884,304.665 103.217,306.332 101.5,307.5C 100.747,304.727 99.7475,302.06 98.5,299.5C 97.8933,299.624 97.56,299.957 97.5,300.5C 96.5655,299.432 96.2322,298.099 96.5,296.5C 96.0022,293.513 95.5022,290.513 95,287.5C 94.6174,286.944 94.1174,286.611 93.5,286.5C 92.5489,285.081 92.2155,283.415 92.5,281.5C 92.5797,278.219 91.913,275.219 90.5,272.5C 87.6496,255.309 87.9829,238.309 91.5,221.5C 92.3149,220.571 93.1482,219.571 94,218.5C 94.4994,223.823 94.666,229.156 94.5,234.5 Z"/></g>
<g><path style="opacity:1" fill="#48aaaa" d="M 171.5,239.5 C 172.815,240.476 174.148,241.476 175.5,242.5C 176.667,280.496 176.833,318.496 176,356.5C 174.961,357.71 173.794,358.71 172.5,359.5C 171.432,357.26 169.766,355.426 167.5,354C 166.216,353.316 165.049,353.483 164,354.5C 163.517,353.552 163.351,352.552 163.5,351.5C 164.822,351.67 165.989,351.337 167,350.5C 168.258,353.055 170.091,353.722 172.5,352.5C 171.181,336.318 170.515,319.985 170.5,303.5C 170.515,287.015 171.181,270.682 172.5,254.5C 164.271,250.564 164.605,247.398 173.5,245C 172.139,243.416 171.472,241.582 171.5,239.5 Z"/></g>
<g><path style="opacity:1" fill="#b9d187" d="M 328.5,242.5 C 326.473,245.194 324.139,247.527 321.5,249.5C 321.5,247.833 321.5,246.167 321.5,244.5C 324.108,244.6 326.442,243.933 328.5,242.5 Z"/></g>
<g><path style="opacity:0.996" fill="#315082" d="M 399.5,250.5 C 397.203,256.416 394.537,262.082 391.5,267.5C 390.5,267.5 389.5,267.5 388.5,267.5C 388.768,269.099 388.434,270.432 387.5,271.5C 387.746,267.801 386.412,265.301 383.5,264C 382.831,268.733 381.164,272.9 378.5,276.5C 381.454,267.397 383.12,258.064 383.5,248.5C 377.996,248.15 372.663,248.817 367.5,250.5C 366.047,249.175 366.381,248.342 368.5,248C 366.744,247.798 365.078,247.298 363.5,246.5C 364.167,246.167 364.833,245.833 365.5,245.5C 371.958,246.033 378.624,246.533 385.5,247C 386.833,252 386.833,257 385.5,262C 387.107,263.049 387.773,264.549 387.5,266.5C 388.675,266.719 389.675,266.386 390.5,265.5C 389.752,263.668 388.752,262.001 387.5,260.5C 388.274,259.289 389.107,259.289 390,260.5C 391.875,259.258 393.709,257.924 395.5,256.5C 396.466,254.604 396.799,252.604 396.5,250.5C 397.5,250.5 398.5,250.5 399.5,250.5 Z"/></g>
<g><path style="opacity:1" fill="#47a9b2" d="M 176.5,228.5 C 175.589,230.803 173.923,232.303 171.5,233C 172.793,233.49 174.127,233.657 175.5,233.5C 175.649,234.552 175.483,235.552 175,236.5C 173.271,236.974 172.105,237.974 171.5,239.5C 171.472,241.582 172.139,243.416 173.5,245C 164.605,247.398 164.271,250.564 172.5,254.5C 171.181,270.682 170.515,287.015 170.5,303.5C 170.515,319.985 171.181,336.318 172.5,352.5C 170.091,353.722 168.258,353.055 167,350.5C 165.989,351.337 164.822,351.67 163.5,351.5C 163.351,352.552 163.517,353.552 164,354.5C 165.049,353.483 166.216,353.316 167.5,354C 169.766,355.426 171.432,357.26 172.5,359.5C 171.624,359.369 170.957,359.702 170.5,360.5C 171.193,361.518 171.859,362.518 172.5,363.5C 166.443,360.471 161.109,356.471 156.5,351.5C 158.315,352.63 160.315,353.296 162.5,353.5C 161.521,320.864 161.188,288.198 161.5,255.5C 156.203,254.968 156.203,254.134 161.5,253C 162.337,251.989 162.67,250.822 162.5,249.5C 160.523,250.149 158.69,250.149 157,249.5C 154.541,250.978 152.041,252.312 149.5,253.5C 157.266,243.73 166.266,235.397 176.5,228.5 Z"/></g>
<g><path style="opacity:0.435" fill="#7c91b0" d="M 341.5,244.5 C 340.833,247.167 339.167,248.833 336.5,249.5C 337.833,247.5 339.5,245.833 341.5,244.5 Z"/></g>
<g><path style="opacity:0.043" fill="#b1c4d9" d="M 401.5,247.5 C 401.573,249.027 400.906,250.027 399.5,250.5C 399.427,248.973 400.094,247.973 401.5,247.5 Z"/></g>
<g><path style="opacity:1" fill="#42a8b8" d="M 156.5,351.5 C 152.167,347.833 148.167,343.833 144.5,339.5C 147.005,339.98 149.338,340.98 151.5,342.5C 152.5,342.167 153.167,341.5 153.5,340.5C 152.148,339.476 150.815,338.476 149.5,337.5C 150.407,333.569 151.574,333.569 153,337.5C 153.915,336.672 154.581,335.672 155,334.5C 155.333,312.5 155.667,290.5 156,268.5C 157.011,267.663 158.178,267.33 159.5,267.5C 159.785,265.712 159.452,264.045 158.5,262.5C 157.167,263.5 155.833,264.5 154.5,265.5C 153.614,264.675 153.281,263.675 153.5,262.5C 153.502,260.169 152.669,258.169 151,256.5C 147.869,258.521 144.702,260.187 141.5,261.5C 143.833,258.5 146.5,255.833 149.5,253.5C 152.041,252.312 154.541,250.978 157,249.5C 158.69,250.149 160.523,250.149 162.5,249.5C 162.67,250.822 162.337,251.989 161.5,253C 156.203,254.134 156.203,254.968 161.5,255.5C 161.188,288.198 161.521,320.864 162.5,353.5C 160.315,353.296 158.315,352.63 156.5,351.5 Z"/></g>
<g><path style="opacity:1" fill="#4a638e" d="M 355.5,253.5 C 349.939,258.205 343.606,261.705 336.5,264C 333.31,266.364 330.31,268.864 327.5,271.5C 327.5,270.167 327.5,268.833 327.5,267.5C 328.552,267.649 329.552,267.483 330.5,267C 330.167,266.667 329.833,266.333 329.5,266C 330.849,265.228 331.682,264.061 332,262.5C 333.049,263.517 334.216,263.684 335.5,263C 338.462,258.948 342.462,257.448 347.5,258.5C 347.67,257.178 347.337,256.011 346.5,255C 349.544,254.637 352.544,254.137 355.5,253.5 Z"/></g>
<g><path style="opacity:0.612" fill="#567292" d="M 329.5,255.5 C 328.797,257.716 327.464,259.549 325.5,261C 323.266,262.75 320.932,264.25 318.5,265.5C 321.558,261.475 325.225,258.142 329.5,255.5 Z"/></g>
<g><path style="opacity:1" fill="#3ca7bd" d="M 153.5,262.5 C 153.281,263.675 153.614,264.675 154.5,265.5C 155.833,264.5 157.167,263.5 158.5,262.5C 159.452,264.045 159.785,265.712 159.5,267.5C 158.178,267.33 157.011,267.663 156,268.5C 155.667,290.5 155.333,312.5 155,334.5C 154.581,335.672 153.915,336.672 153,337.5C 151.574,333.569 150.407,333.569 149.5,337.5C 148.173,315.627 148.173,293.627 149.5,271.5C 148.218,269.821 147.218,267.987 146.5,266C 147.854,264.706 149.188,264.54 150.5,265.5C 151.735,264.66 152.735,263.66 153.5,262.5 Z"/></g>
<g><path style="opacity:0.998" fill="#596f96" d="M 391.5,267.5 C 390.696,270.442 389.362,273.109 387.5,275.5C 387.5,274.167 387.5,272.833 387.5,271.5C 388.434,270.432 388.768,269.099 388.5,267.5C 389.5,267.5 390.5,267.5 391.5,267.5 Z"/></g>
<g><path style="opacity:1" fill="#a8c46e" d="M 303.5,266.5 C 300.473,270.194 297.14,273.527 293.5,276.5C 293.773,274.549 293.107,273.049 291.5,272C 293.134,271.506 294.801,271.34 296.5,271.5C 296.815,267.2 299.149,265.533 303.5,266.5 Z"/></g>
<g><path style="opacity:1" fill="#3ca7c4" d="M 153.5,262.5 C 152.735,263.66 151.735,264.66 150.5,265.5C 149.188,264.54 147.854,264.706 146.5,266C 147.218,267.987 148.218,269.821 149.5,271.5C 148.173,293.627 148.173,315.627 149.5,337.5C 150.815,338.476 152.148,339.476 153.5,340.5C 153.167,341.5 152.5,342.167 151.5,342.5C 149.338,340.98 147.005,339.98 144.5,339.5C 139.73,334.393 135.73,328.727 132.5,322.5C 134.451,322.773 135.951,322.107 137,320.5C 137.333,317.167 137.667,313.833 138,310.5C 139.768,310.635 141.601,310.635 143.5,310.5C 142.46,308.477 141.46,306.477 140.5,304.5C 141.773,298.617 141.773,292.783 140.5,287C 145.006,279.72 143.673,278.22 136.5,282.5C 135.494,278.773 136.994,276.44 141,275.5C 141.333,276.167 141.667,276.833 142,277.5C 142.723,274.93 143.89,272.597 145.5,270.5C 145.167,269.167 144.833,267.833 144.5,266.5C 143.675,265.614 142.675,265.281 141.5,265.5C 141.756,267.792 141.423,269.959 140.5,272C 139.551,272.617 138.718,272.451 138,271.5C 137.626,272.416 137.126,273.25 136.5,274C 134.645,274.422 132.811,274.922 131,275.5C 129.502,277.559 127.502,278.892 125,279.5C 124.601,279.272 124.435,278.938 124.5,278.5C 129.833,272.5 135.5,266.833 141.5,261.5C 144.702,260.187 147.869,258.521 151,256.5C 152.669,258.169 153.502,260.169 153.5,262.5 Z"/></g>
<g><path style="opacity:1" fill="#335083" d="M 318.5,265.5 C 318.64,267.124 317.973,268.29 316.5,269C 320.168,269.948 323.835,270.781 327.5,271.5C 323.75,277.544 318.416,280.044 311.5,279C 309.15,276.627 308.983,274.127 311,271.5C 313.106,268.882 315.606,266.882 318.5,265.5 Z"/></g>
<g><path style="opacity:1" fill="#a0bd61" d="M 366.5,275.5 C 367.167,271.167 367.833,266.833 368.5,262.5C 362.295,263.267 357.295,266.101 353.5,271C 349.413,272.336 345.413,273.836 341.5,275.5C 349.207,267.626 358.541,263.126 369.5,262C 370.322,266.88 369.322,271.38 366.5,275.5 Z"/></g>
<g><path style="opacity:1" fill="#90ba3f" d="M 366.5,275.5 C 362.062,280.289 359.396,285.956 358.5,292.5C 356.408,292.439 354.908,291.439 354,289.5C 353.333,290.5 353.333,291.5 354,292.5C 355.013,293.496 355.846,294.496 356.5,295.5C 355.063,297.577 354.396,299.91 354.5,302.5C 354.5,302.833 354.5,303.167 354.5,303.5C 351.5,303.167 350.167,304.5 350.5,307.5C 348.712,307.215 347.045,307.548 345.5,308.5C 346.397,308.669 347.397,309.002 348.5,309.5C 346.309,310.881 344.976,312.881 344.5,315.5C 342.5,314.167 340.5,312.833 338.5,311.5C 337.52,314.086 337.187,316.753 337.5,319.5C 338.5,319.5 339.5,319.5 340.5,319.5C 340.5,320.5 340.5,321.5 340.5,322.5C 338.833,322.5 337.167,322.5 335.5,322.5C 335.663,324.857 335.497,327.19 335,329.5C 331.168,330.836 329.668,333.503 330.5,337.5C 328.833,337.5 327.167,337.5 325.5,337.5C 325.703,335.956 326.37,334.622 327.5,333.5C 325.619,332.238 324.286,330.571 323.5,328.5C 325.719,320.066 326.052,311.566 324.5,303C 327.419,300.052 327.086,297.552 323.5,295.5C 326.016,293.327 327.683,290.66 328.5,287.5C 331.158,285.032 333.491,282.365 335.5,279.5C 337.223,277.782 339.223,276.449 341.5,275.5C 345.413,273.836 349.413,272.336 353.5,271C 357.295,266.101 362.295,263.267 368.5,262.5C 367.833,266.833 367.167,271.167 366.5,275.5 Z"/></g>
<g><path style="opacity:1" fill="#1d457e" d="M 387.5,271.5 C 387.5,272.833 387.5,274.167 387.5,275.5C 384.457,276.744 383.124,279.077 383.5,282.5C 382.5,282.5 381.5,282.5 380.5,282.5C 379.833,285.167 379.167,287.833 378.5,290.5C 378.5,291.167 378.167,291.5 377.5,291.5C 376.5,291.5 375.5,291.5 374.5,291.5C 376.543,286.717 377.876,281.717 378.5,276.5C 381.164,272.9 382.831,268.733 383.5,264C 386.412,265.301 387.746,267.801 387.5,271.5 Z"/></g>
<g><path style="opacity:0.075" fill="#a4b9cb" d="M 90.5,272.5 C 91.913,275.219 92.5797,278.219 92.5,281.5C 91.087,278.781 90.4203,275.781 90.5,272.5 Z"/></g>
<g><path style="opacity:0.996" fill="#67769b" d="M 387.5,275.5 C 385.685,281.292 382.685,286.292 378.5,290.5C 379.167,287.833 379.833,285.167 380.5,282.5C 381.5,282.5 382.5,282.5 383.5,282.5C 383.124,279.077 384.457,276.744 387.5,275.5 Z"/></g>
<g><path style="opacity:0.447" fill="#b6cc8d" d="M 335.5,279.5 C 333.491,282.365 331.158,285.032 328.5,287.5C 327.391,287.557 326.391,287.89 325.5,288.5C 328.165,284.839 331.498,281.839 335.5,279.5 Z"/></g>
<g><path style="opacity:0.996" fill="#556b92" d="M 378.5,276.5 C 377.876,281.717 376.543,286.717 374.5,291.5C 375.5,291.5 376.5,291.5 377.5,291.5C 375.945,293.94 373.945,295.94 371.5,297.5C 371.167,296.667 370.833,295.833 370.5,295C 373.269,288.856 375.935,282.689 378.5,276.5 Z"/></g>
<g><path style="opacity:1" fill="#9fbe5c" d="M 366.5,275.5 C 363.642,285.1 359.642,294.1 354.5,302.5C 354.396,299.91 355.063,297.577 356.5,295.5C 355.846,294.496 355.013,293.496 354,292.5C 353.333,291.5 353.333,290.5 354,289.5C 354.908,291.439 356.408,292.439 358.5,292.5C 359.396,285.956 362.062,280.289 366.5,275.5 Z"/></g>
<g><path style="opacity:0.89" fill="#597194" d="M 93.5,286.5 C 94.1174,286.611 94.6174,286.944 95,287.5C 95.5022,290.513 96.0022,293.513 96.5,296.5C 94.7571,293.505 93.7571,290.171 93.5,286.5 Z"/></g>
<g><path style="opacity:0.996" fill="#a5c179" d="M 287.5,282.5 C 282.526,287.139 277.526,291.805 272.5,296.5C 272.5,295.5 272.5,294.5 272.5,293.5C 273.261,292.609 274.261,291.942 275.5,291.5C 276.386,290.675 276.719,289.675 276.5,288.5C 278.5,287.833 280.5,287.167 282.5,286.5C 282.746,283.53 284.412,282.197 287.5,282.5 Z"/></g>
<g><path style="opacity:0.978" fill="#8cb77b" d="M 310.5,293.5 C 310.5,294.5 310.5,295.5 310.5,296.5C 307.123,296.068 304.123,296.735 301.5,298.5C 299.319,300.091 296.986,301.424 294.5,302.5C 292.958,303.301 291.292,303.634 289.5,303.5C 295.545,298.312 302.545,294.979 310.5,293.5 Z"/></g>
<g><path style="opacity:1" fill="#7bb65e" d="M 325.5,288.5 C 325.117,290.408 324.117,291.908 322.5,293C 319.854,293.497 317.187,293.664 314.5,293.5C 314.5,294.833 314.5,296.167 314.5,297.5C 313.325,297.281 312.325,297.614 311.5,298.5C 311.957,299.298 312.624,299.631 313.5,299.5C 313.25,300.922 312.417,301.922 311,302.5C 310.833,307.833 310.667,313.167 310.5,318.5C 311.044,327.203 311.044,335.87 310.5,344.5C 310.694,347.611 311.361,350.611 312.5,353.5C 309.67,358.154 310.003,362.487 313.5,366.5C 313.586,367.496 313.252,368.329 312.5,369C 310.527,369.495 308.527,369.662 306.5,369.5C 306.5,370.5 306.5,371.5 306.5,372.5C 304.5,372.5 302.5,372.5 300.5,372.5C 300.5,371.5 300.5,370.5 300.5,369.5C 302.288,369.785 303.955,369.452 305.5,368.5C 303.388,365.825 302.388,362.658 302.5,359C 302.624,340.855 302.791,322.689 303,304.5C 303.692,303.975 304.192,303.308 304.5,302.5C 303.167,301.833 301.833,301.167 300.5,300.5C 300.863,299.817 301.196,299.15 301.5,298.5C 304.123,296.735 307.123,296.068 310.5,296.5C 310.5,295.5 310.5,294.5 310.5,293.5C 315.612,292.287 320.612,290.62 325.5,288.5 Z"/></g>
<g><path style="opacity:1" fill="#87b94c" d="M 328.5,287.5 C 327.683,290.66 326.016,293.327 323.5,295.5C 327.086,297.552 327.419,300.052 324.5,303C 326.052,311.566 325.719,320.066 323.5,328.5C 324.286,330.571 325.619,332.238 327.5,333.5C 326.37,334.622 325.703,335.956 325.5,337.5C 325.5,339.167 325.5,340.833 325.5,342.5C 324.167,342.5 322.833,342.5 321.5,342.5C 321.719,343.675 321.386,344.675 320.5,345.5C 318.674,345.08 316.674,345.08 314.5,345.5C 315.717,331.472 315.717,317.472 314.5,303.5C 317.413,301.099 317.079,299.766 313.5,299.5C 312.624,299.631 311.957,299.298 311.5,298.5C 312.325,297.614 313.325,297.281 314.5,297.5C 314.5,296.167 314.5,294.833 314.5,293.5C 317.187,293.664 319.854,293.497 322.5,293C 324.117,291.908 325.117,290.408 325.5,288.5C 326.391,287.89 327.391,287.557 328.5,287.5 Z"/></g>
<g><path style="opacity:1" fill="#75b468" d="M 301.5,298.5 C 301.196,299.15 300.863,299.817 300.5,300.5C 301.833,301.167 303.167,301.833 304.5,302.5C 304.192,303.308 303.692,303.975 303,304.5C 302.791,322.689 302.624,340.855 302.5,359C 302.388,362.658 303.388,365.825 305.5,368.5C 303.955,369.452 302.288,369.785 300.5,369.5C 300.5,370.5 300.5,371.5 300.5,372.5C 302.5,372.5 304.5,372.5 306.5,372.5C 306.5,371.5 306.5,370.5 306.5,369.5C 308.527,369.662 310.527,369.495 312.5,369C 313.252,368.329 313.586,367.496 313.5,366.5C 315.167,366.5 316.833,366.5 318.5,366.5C 314.909,370.064 310.575,372.398 305.5,373.5C 302.294,374.079 299.294,375.079 296.5,376.5C 292.324,377.169 290.991,375.669 292.5,372C 293.448,371.517 294.448,371.351 295.5,371.5C 296.291,354.531 296.791,337.531 297,320.5C 298.563,315.282 298.896,309.949 298,304.5C 296.698,303.915 295.531,303.249 294.5,302.5C 296.986,301.424 299.319,300.091 301.5,298.5 Z"/></g>
<g><path style="opacity:0.994" fill="#536b92" d="M 103.5,302.5 C 106.79,309.755 110.124,317.088 113.5,324.5C 110.631,321.488 109.298,322.155 109.5,326.5C 108.026,325.564 107.026,324.23 106.5,322.5C 107.643,322.092 108.643,321.425 109.5,320.5C 107.811,316.682 105.978,313.016 104,309.5C 103.823,312.183 103.989,314.85 104.5,317.5C 101.372,312.233 99.0385,306.566 97.5,300.5C 97.56,299.957 97.8933,299.624 98.5,299.5C 99.7475,302.06 100.747,304.727 101.5,307.5C 103.217,306.332 103.884,304.665 103.5,302.5 Z"/></g>
<g><path style="opacity:0.498" fill="#b4c685" d="M 368.5,314.5 C 369.428,309.04 367.428,307.04 362.5,308.5C 362.97,307.307 363.97,306.64 365.5,306.5C 370.771,307.588 371.771,310.255 368.5,314.5 Z"/></g>
<g><path style="opacity:1" fill="#39a5ce" d="M 132.5,322.5 C 124.325,311.487 119.158,299.153 117,285.5C 119.37,282.961 121.87,280.628 124.5,278.5C 124.435,278.938 124.601,279.272 125,279.5C 127.502,278.892 129.502,277.559 131,275.5C 132.811,274.922 134.645,274.422 136.5,274C 137.126,273.25 137.626,272.416 138,271.5C 138.718,272.451 139.551,272.617 140.5,272C 141.423,269.959 141.756,267.792 141.5,265.5C 142.675,265.281 143.675,265.614 144.5,266.5C 144.833,267.833 145.167,269.167 145.5,270.5C 143.89,272.597 142.723,274.93 142,277.5C 141.667,276.833 141.333,276.167 141,275.5C 136.994,276.44 135.494,278.773 136.5,282.5C 143.673,278.22 145.006,279.72 140.5,287C 141.773,292.783 141.773,298.617 140.5,304.5C 141.46,306.477 142.46,308.477 143.5,310.5C 141.601,310.635 139.768,310.635 138,310.5C 137.667,313.833 137.333,317.167 137,320.5C 135.951,322.107 134.451,322.773 132.5,322.5 Z"/></g>
<g><path style="opacity:1" fill="#6eb370" d="M 294.5,302.5 C 295.531,303.249 296.698,303.915 298,304.5C 298.896,309.949 298.563,315.282 297,320.5C 296.791,337.531 296.291,354.531 295.5,371.5C 294.448,371.351 293.448,371.517 292.5,372C 290.991,375.669 292.324,377.169 296.5,376.5C 296.5,376.833 296.5,377.167 296.5,377.5C 294.833,377.5 293.167,377.5 291.5,377.5C 290.551,375.223 289.218,373.223 287.5,371.5C 287.919,370.328 288.585,369.328 289.5,368.5C 288.511,347.212 288.178,325.879 288.5,304.5C 288.5,304.167 288.5,303.833 288.5,303.5C 288.833,303.5 289.167,303.5 289.5,303.5C 291.292,303.634 292.958,303.301 294.5,302.5 Z"/></g>
<g><path style="opacity:1" fill="#65b17e" d="M 288.5,304.5 C 288.178,325.879 288.511,347.212 289.5,368.5C 288.585,369.328 287.919,370.328 287.5,371.5C 289.218,373.223 290.551,375.223 291.5,377.5C 287.385,379.61 283.052,379.943 278.5,378.5C 278.167,377.833 277.833,377.167 277.5,376.5C 280.779,373.604 281.279,370.27 279,366.5C 278.333,349.833 278.333,333.167 279,316.5C 279.402,315.128 279.902,313.795 280.5,312.5C 283.548,310.118 286.215,307.452 288.5,304.5 Z"/></g>
<g><path style="opacity:1" fill="#98bc52" d="M 354.5,303.5 C 347.974,315.889 339.974,327.222 330.5,337.5C 329.668,333.503 331.168,330.836 335,329.5C 335.497,327.19 335.663,324.857 335.5,322.5C 337.167,322.5 338.833,322.5 340.5,322.5C 340.5,321.5 340.5,320.5 340.5,319.5C 339.5,319.5 338.5,319.5 337.5,319.5C 337.187,316.753 337.52,314.086 338.5,311.5C 340.5,312.833 342.5,314.167 344.5,315.5C 344.976,312.881 346.309,310.881 348.5,309.5C 347.397,309.002 346.397,308.669 345.5,308.5C 347.045,307.548 348.712,307.215 350.5,307.5C 350.167,304.5 351.5,303.167 354.5,303.5 Z"/></g>
<g><path style="opacity:1" fill="#90ba3f" d="M 368.5,314.5 C 364.705,313.959 362.705,315.625 362.5,319.5C 361.119,319 360.453,318 360.5,316.5C 361.762,313.978 362.429,311.311 362.5,308.5C 367.428,307.04 369.428,309.04 368.5,314.5 Z"/></g>
<g><path style="opacity:0.992" fill="#2a4a7f" d="M 106.5,322.5 C 105.833,320.833 105.167,319.167 104.5,317.5C 103.989,314.85 103.823,312.183 104,309.5C 105.978,313.016 107.811,316.682 109.5,320.5C 108.643,321.425 107.643,322.092 106.5,322.5 Z"/></g>
<g><path style="opacity:1" fill="#62b087" d="M 288.5,303.5 C 288.5,303.833 288.5,304.167 288.5,304.5C 286.215,307.452 283.548,310.118 280.5,312.5C 279.902,313.795 279.402,315.128 279,316.5C 278.333,333.167 278.333,349.833 279,366.5C 281.279,370.27 280.779,373.604 277.5,376.5C 277.833,377.167 278.167,377.833 278.5,378.5C 283.052,379.943 287.385,379.61 291.5,377.5C 293.167,377.5 294.833,377.5 296.5,377.5C 293.417,379.025 290.084,380.025 286.5,380.5C 283.167,380.5 279.833,380.5 276.5,380.5C 275.609,379.739 274.942,378.739 274.5,377.5C 276.171,375.49 276.838,373.157 276.5,370.5C 275.07,370.421 273.736,370.754 272.5,371.5C 271.201,369.693 271.368,368.027 273,366.5C 273.333,366.833 273.667,367.167 274,367.5C 274.824,351.259 274.658,335.093 273.5,319C 275.516,318.101 277.183,316.767 278.5,315C 278.167,314.667 277.833,314.333 277.5,314C 279.037,312.89 279.703,311.39 279.5,309.5C 282.32,307.255 285.32,305.255 288.5,303.5 Z"/></g>
<g><path style="opacity:1" fill="#9fc05d" d="M 362.5,308.5 C 362.429,311.311 361.762,313.978 360.5,316.5C 360.453,318 361.119,319 362.5,319.5C 362.705,315.625 364.705,313.959 368.5,314.5C 366.914,318.678 364.581,322.345 361.5,325.5C 361.77,322.143 361.104,319.809 359.5,318.5C 356.607,320.041 353.94,322.041 351.5,324.5C 355.17,319.158 358.836,313.825 362.5,308.5 Z"/></g>
<g><path style="opacity:1" fill="#90ba40" d="M 361.5,325.5 C 361.5,325.833 361.5,326.167 361.5,326.5C 359.876,326.64 358.71,325.973 358,324.5C 356.097,326.441 355.264,328.774 355.5,331.5C 353.5,332.167 351.5,332.833 349.5,333.5C 350.461,330.574 351.127,327.574 351.5,324.5C 353.94,322.041 356.607,320.041 359.5,318.5C 361.104,319.809 361.77,322.143 361.5,325.5 Z"/></g>
<g><path style="opacity:0.322" fill="#90b5c7" d="M 113.5,324.5 C 114.906,324.973 115.573,325.973 115.5,327.5C 114.094,327.027 113.427,326.027 113.5,324.5 Z"/></g>
<g><path style="opacity:0.994" fill="#2f4d7f" d="M 113.5,324.5 C 113.427,326.027 114.094,327.027 115.5,327.5C 117.083,329.663 118.416,331.996 119.5,334.5C 119.5,335.5 119.5,336.5 119.5,337.5C 117.012,337.317 115.012,336.317 113.5,334.5C 111.642,332.117 110.308,329.45 109.5,326.5C 109.298,322.155 110.631,321.488 113.5,324.5 Z"/></g>
<g><path style="opacity:1" fill="#5eae93" d="M 277.5,311.5 C 276.058,312.82 275.392,314.486 275.5,316.5C 274.5,316.5 273.5,316.5 272.5,316.5C 272.665,319.518 272.498,322.518 272,325.5C 271.333,324.167 270.667,324.167 270,325.5C 269.51,326.793 269.343,328.127 269.5,329.5C 270.5,329.5 271.5,329.5 272.5,329.5C 272.5,330.833 272.5,332.167 272.5,333.5C 271.5,333.5 270.5,333.5 269.5,333.5C 269.5,349.833 269.5,366.167 269.5,382.5C 271.527,382.662 273.527,382.495 275.5,382C 276.056,381.617 276.389,381.117 276.5,380.5C 279.833,380.5 283.167,380.5 286.5,380.5C 280.883,383.068 274.883,384.401 268.5,384.5C 267.432,383.566 266.099,383.232 264.5,383.5C 264.833,365.155 264.5,346.821 263.5,328.5C 261.889,327.68 261.222,326.346 261.5,324.5C 266.248,319.416 271.581,315.083 277.5,311.5 Z"/></g>
<g><path style="opacity:1" fill="#9dbf59" d="M 351.5,324.5 C 351.127,327.574 350.461,330.574 349.5,333.5C 351.5,332.833 353.5,332.167 355.5,331.5C 355.264,328.774 356.097,326.441 358,324.5C 358.71,325.973 359.876,326.64 361.5,326.5C 356.889,333.444 351.555,339.778 345.5,345.5C 345.34,343.801 345.506,342.134 346,340.5C 346.414,340.957 346.914,341.291 347.5,341.5C 348.429,340.311 348.762,338.978 348.5,337.5C 347.448,337.649 346.448,337.483 345.5,337C 347.211,335.867 347.711,334.367 347,332.5C 344.638,333.352 342.805,334.852 341.5,337C 340.552,337.483 339.552,337.649 338.5,337.5C 342.5,332.833 346.833,328.5 351.5,324.5 Z"/></g>
<g><path style="opacity:0.286" fill="#a4b2c7" d="M 374.5,333.5 C 374.573,335.027 373.906,336.027 372.5,336.5C 372.427,334.973 373.094,333.973 374.5,333.5 Z"/></g>
<g><path style="opacity:1" fill="#52ac9b" d="M 261.5,324.5 C 261.222,326.346 261.889,327.68 263.5,328.5C 264.5,346.821 264.833,365.155 264.5,383.5C 266.099,383.232 267.432,383.566 268.5,384.5C 264.158,384.739 259.824,385.073 255.5,385.5C 256.099,373.521 255.432,361.688 253.5,350C 254.783,347.995 255.783,345.828 256.5,343.5C 256.156,340.964 255.156,338.797 253.5,337C 255.055,334.745 256.055,332.245 256.5,329.5C 257.785,327.548 259.451,325.882 261.5,324.5 Z"/></g>
<g><path style="opacity:1" fill="#5bae8c" d="M 279.5,309.5 C 279.703,311.39 279.037,312.89 277.5,314C 277.833,314.333 278.167,314.667 278.5,315C 277.183,316.767 275.516,318.101 273.5,319C 274.658,335.093 274.824,351.259 274,367.5C 273.667,367.167 273.333,366.833 273,366.5C 271.368,368.027 271.201,369.693 272.5,371.5C 273.736,370.754 275.07,370.421 276.5,370.5C 276.838,373.157 276.171,375.49 274.5,377.5C 274.942,378.739 275.609,379.739 276.5,380.5C 276.389,381.117 276.056,381.617 275.5,382C 273.527,382.495 271.527,382.662 269.5,382.5C 269.5,366.167 269.5,349.833 269.5,333.5C 270.5,333.5 271.5,333.5 272.5,333.5C 272.5,332.167 272.5,330.833 272.5,329.5C 271.5,329.5 270.5,329.5 269.5,329.5C 269.343,328.127 269.51,326.793 270,325.5C 270.667,324.167 271.333,324.167 272,325.5C 272.498,322.518 272.665,319.518 272.5,316.5C 273.5,316.5 274.5,316.5 275.5,316.5C 275.392,314.486 276.058,312.82 277.5,311.5C 277.833,310.5 278.5,309.833 279.5,309.5 Z"/></g>
<g><path style="opacity:0.996" fill="#5a7095" d="M 113.5,334.5 C 115.012,336.317 117.012,337.317 119.5,337.5C 119.5,336.5 119.5,335.5 119.5,334.5C 121.262,335.262 122.262,336.596 122.5,338.5C 121.603,337.402 120.77,337.402 120,338.5C 119.51,339.793 119.343,341.127 119.5,342.5C 117.147,340.14 115.147,337.473 113.5,334.5 Z"/></g>
<g><path style="opacity:1" fill="#90ba43" d="M 345.5,345.5 C 344.134,343.649 342.467,343.316 340.5,344.5C 341.645,345.891 341.645,347.224 340.5,348.5C 337.845,346.98 337.178,347.48 338.5,350C 336.934,352.367 334.767,353.867 332,354.5C 331.51,355.793 331.343,357.127 331.5,358.5C 331.167,358.5 330.833,358.5 330.5,358.5C 327.956,358.896 325.789,358.229 324,356.5C 322.833,358.167 321.667,359.833 320.5,361.5C 319.398,358.81 319.564,356.143 321,353.5C 323.067,350.93 325.567,348.93 328.5,347.5C 329.386,346.675 329.719,345.675 329.5,344.5C 332.19,341.815 335.19,339.482 338.5,337.5C 339.552,337.649 340.552,337.483 341.5,337C 342.805,334.852 344.638,333.352 347,332.5C 347.711,334.367 347.211,335.867 345.5,337C 346.448,337.483 347.448,337.649 348.5,337.5C 348.762,338.978 348.429,340.311 347.5,341.5C 346.914,341.291 346.414,340.957 346,340.5C 345.506,342.134 345.34,343.801 345.5,345.5 Z"/></g>
<g><path style="opacity:1" fill="#a4c267" d="M 345.5,345.5 C 341.255,350.289 336.589,354.622 331.5,358.5C 331.343,357.127 331.51,355.793 332,354.5C 334.767,353.867 336.934,352.367 338.5,350C 337.178,347.48 337.845,346.98 340.5,348.5C 341.645,347.224 341.645,345.891 340.5,344.5C 342.467,343.316 344.134,343.649 345.5,345.5 Z"/></g>
<g><path style="opacity:1" fill="#4caaaa" d="M 256.5,329.5 C 256.055,332.245 255.055,334.745 253.5,337C 255.156,338.797 256.156,340.964 256.5,343.5C 255.783,345.828 254.783,347.995 253.5,350C 255.432,361.688 256.099,373.521 255.5,385.5C 250.167,385.5 244.833,385.5 239.5,385.5C 239.5,385.167 239.5,384.833 239.5,384.5C 241.833,384.5 244.167,384.5 246.5,384.5C 246.5,373.5 246.5,362.5 246.5,351.5C 245.325,351.719 244.325,351.386 243.5,350.5C 244.981,349.52 246.315,348.353 247.5,347C 247.619,345.719 247.119,344.552 246,343.5C 244.492,345.838 242.325,346.838 239.5,346.5C 242.1,343.059 244.933,339.725 248,336.5C 250.726,333.931 253.56,331.598 256.5,329.5 Z"/></g>
<g><path style="opacity:1" fill="#43a9b2" d="M 239.5,384.5 C 238.169,378.519 238.169,372.519 239.5,366.5C 238.833,364.833 238.167,363.167 237.5,361.5C 239.516,358.991 239.849,356.324 238.5,353.5C 239.325,352.614 240.325,352.281 241.5,352.5C 241.439,350.408 240.439,348.908 238.5,348C 239.056,347.617 239.389,347.117 239.5,346.5C 242.325,346.838 244.492,345.838 246,343.5C 247.119,344.552 247.619,345.719 247.5,347C 246.315,348.353 244.981,349.52 243.5,350.5C 244.325,351.386 245.325,351.719 246.5,351.5C 246.5,362.5 246.5,373.5 246.5,384.5C 244.167,384.5 241.833,384.5 239.5,384.5 Z"/></g>
<g><path style="opacity:1" fill="#87b856" d="M 313.5,299.5 C 317.079,299.766 317.413,301.099 314.5,303.5C 315.717,317.472 315.717,331.472 314.5,345.5C 316.674,345.08 318.674,345.08 320.5,345.5C 321.386,344.675 321.719,343.675 321.5,342.5C 322.833,342.5 324.167,342.5 325.5,342.5C 325.5,340.833 325.5,339.167 325.5,337.5C 327.167,337.5 328.833,337.5 330.5,337.5C 327.772,341.737 324.439,345.571 320.5,349C 323.686,348.074 326.686,346.574 329.5,344.5C 329.719,345.675 329.386,346.675 328.5,347.5C 325.567,348.93 323.067,350.93 321,353.5C 319.564,356.143 319.398,358.81 320.5,361.5C 321.667,359.833 322.833,358.167 324,356.5C 325.789,358.229 327.956,358.896 330.5,358.5C 327.197,362.156 323.197,364.822 318.5,366.5C 316.833,366.5 315.167,366.5 313.5,366.5C 310.003,362.487 309.67,358.154 312.5,353.5C 311.361,350.611 310.694,347.611 310.5,344.5C 311.044,335.87 311.044,327.203 310.5,318.5C 310.667,313.167 310.833,307.833 311,302.5C 312.417,301.922 313.25,300.922 313.5,299.5 Z"/></g>
<g><path style="opacity:0.318" fill="#abb8cf" d="M 353.5,359.5 C 353.027,360.906 352.027,361.573 350.5,361.5C 350.973,360.094 351.973,359.427 353.5,359.5 Z"/></g>
<g><path style="opacity:1" fill="#47a9c0" d="M 239.5,346.5 C 239.389,347.117 239.056,347.617 238.5,348C 240.439,348.908 241.439,350.408 241.5,352.5C 240.325,352.281 239.325,352.614 238.5,353.5C 239.849,356.324 239.516,358.991 237.5,361.5C 238.167,363.167 238.833,364.833 239.5,366.5C 238.169,372.519 238.169,378.519 239.5,384.5C 239.5,384.833 239.5,385.167 239.5,385.5C 237.5,385.5 235.5,385.5 233.5,385.5C 225.168,385.311 217.168,383.645 209.5,380.5C 212.844,375.829 216.51,371.495 220.5,367.5C 225.803,359.532 232.137,352.532 239.5,346.5 Z"/></g>
<g><path style="opacity:1" fill="#405a88" d="M 321.5,388.5 C 321.719,387.325 321.386,386.325 320.5,385.5C 317.979,386.785 315.313,387.452 312.5,387.5C 326.137,380.341 338.804,371.674 350.5,361.5C 352.027,361.573 353.027,360.906 353.5,359.5C 360.074,352.009 366.408,344.342 372.5,336.5C 373.906,336.027 374.573,335.027 374.5,333.5C 378.808,325.554 383.142,317.554 387.5,309.5C 389.547,308.096 391.214,308.429 392.5,310.5C 377.786,344.871 354.119,370.871 321.5,388.5 Z"/></g>
<g><path style="opacity:1" fill="#34a4c9" d="M 220.5,367.5 C 221.5,367.5 222.5,367.5 223.5,367.5C 223.5,366.5 223.5,365.5 223.5,364.5C 225.929,364.415 227.929,363.415 229.5,361.5C 230.429,362.689 230.762,364.022 230.5,365.5C 229.325,365.281 228.325,365.614 227.5,366.5C 228.729,367.281 230.062,367.781 231.5,368C 230.531,372.737 230.197,377.57 230.5,382.5C 228.116,382.443 225.782,382.777 223.5,383.5C 220.05,381.874 216.383,380.874 212.5,380.5C 212.618,377.75 213.951,375.75 216.5,374.5C 217.386,373.675 217.719,372.675 217.5,371.5C 218.5,371.5 219.5,371.5 220.5,371.5C 220.5,370.167 220.5,368.833 220.5,367.5 Z"/></g>
<g><path style="opacity:0.004" fill="#ccd5e3" d="M 142.5,367.5 C 143.5,367.833 144.167,368.5 144.5,369.5C 143.167,369.5 142.5,368.833 142.5,367.5 Z"/></g>
<g><path style="opacity:0.71" fill="#a6c69e" d="M 305.5,373.5 C 302.947,375.584 299.947,376.917 296.5,377.5C 296.5,377.167 296.5,376.833 296.5,376.5C 299.294,375.079 302.294,374.079 305.5,373.5 Z"/></g>
<g><path style="opacity:0.059" fill="#9bc5c4" d="M 268.5,384.5 C 261.903,386.03 255.07,386.697 248,386.5C 242.988,386.499 238.155,386.166 233.5,385.5C 235.5,385.5 237.5,385.5 239.5,385.5C 244.833,385.5 250.167,385.5 255.5,385.5C 259.824,385.073 264.158,384.739 268.5,384.5 Z"/></g>
<g><path style="opacity:0.992" fill="#395584" d="M 122.5,338.5 C 149.474,374.116 185.14,395.116 229.5,401.5C 224.086,401.182 218.752,401.182 213.5,401.5C 213.709,402.086 214.043,402.586 214.5,403C 217.992,402.93 220.992,403.763 223.5,405.5C 193.526,401.189 167.192,389.189 144.5,369.5C 144.167,368.5 143.5,367.833 142.5,367.5C 133.239,360.652 125.572,352.318 119.5,342.5C 119.343,341.127 119.51,339.793 120,338.5C 120.77,337.402 121.603,337.402 122.5,338.5 Z"/></g>
<g><path style="opacity:0.999" fill="#3a5886" d="M 321.5,388.5 C 308.872,395.762 295.206,400.762 280.5,403.5C 277.482,403.335 274.482,403.502 271.5,404C 270.584,404.278 269.918,404.778 269.5,405.5C 265.03,406.486 260.363,406.819 255.5,406.5C 255.719,405.325 255.386,404.325 254.5,403.5C 249.889,404.61 245.222,404.777 240.5,404C 236.831,402.907 233.164,402.074 229.5,401.5C 258.509,404.392 286.176,399.725 312.5,387.5C 315.313,387.452 317.979,386.785 320.5,385.5C 321.386,386.325 321.719,387.325 321.5,388.5 Z"/></g>
<g><path style="opacity:0.443" fill="#536e93" d="M 280.5,403.5 C 277.026,404.525 273.36,405.192 269.5,405.5C 269.918,404.778 270.584,404.278 271.5,404C 274.482,403.502 277.482,403.335 280.5,403.5 Z"/></g>
<g><path style="opacity:1" fill="#314f82" d="M 229.5,401.5 C 233.164,402.074 236.831,402.907 240.5,404C 245.222,404.777 249.889,404.61 254.5,403.5C 255.386,404.325 255.719,405.325 255.5,406.5C 244.903,407.655 234.236,407.321 223.5,405.5C 220.992,403.763 217.992,402.93 214.5,403C 214.043,402.586 213.709,402.086 213.5,401.5C 218.752,401.182 224.086,401.182 229.5,401.5 Z"/></g>
</svg>
